<svg id="Layer_1" data-name="Layer 1" xmlns="http://www.w3.org/2000/svg" viewBox="0 0 733.2 113.09"><defs><style>.cls-1{fill:#fff;}.cls-2{fill:#6f1931;}.cls-3{fill:#dcc699;}.cls-4{fill:#231f20;}.cls-5{fill:#00904d;}.cls-6{fill:#00833e;}.cls-7{fill:#ff8300;}</style></defs><title>FAMUFSUCOELogo</title><circle class="cls-1" cx="54.36" cy="54.41" r="47.68"/><path class="cls-1" d="M204.77,226.33A51.27,51.27,0,1,0,256,277.59a51.26,51.26,0,0,0-51.26-51.26" transform="translate(-35.79 -222.47)"/><path class="cls-2" d="M237.57,277.6a32.8,32.8,0,1,1-32.8-32.8,32.79,32.79,0,0,1,32.8,32.8" transform="translate(-35.79 -222.47)"/><path class="cls-1" d="M197.9,278.45a17.47,17.47,0,0,0,13.75,0l.35,6.43a19.09,19.09,0,0,1-14.45,0Zm-6.61,6.23a63.27,63.27,0,0,1-9.78,1.13c-2.87,0-4.77-.65-5.57-1.68a38,38,0,0,1-1.07-5.69,24.14,24.14,0,0,0,7.35,1.07,45.83,45.83,0,0,0,8.72-1.22ZM181.1,269.63a32.9,32.9,0,0,1,2.13,3.4,18.28,18.28,0,0,0,2.68-3c.17,2.43-.24,5.27-3.31,8.47a20.79,20.79,0,0,1-7.71-1.14,1.08,1.08,0,0,1,.89-1.07c1.24-.4,3.39-.82,4.25-2.18a11.65,11.65,0,0,0,1.07-4.45m37.5,8.66a46,46,0,0,0,8.73,1.22,24,24,0,0,0,7.34-1.07,37.89,37.89,0,0,1-1.06,5.69c-.8,1-2.7,1.68-5.57,1.68a63.13,63.13,0,0,1-9.78-1.13Zm10.92-4.21c.86,1.36,3,1.78,4.25,2.18a1.09,1.09,0,0,1,.89,1.07,20.82,20.82,0,0,1-7.71,1.14c-3.08-3.2-3.49-6-3.31-8.47a17.84,17.84,0,0,0,2.68,3,32.9,32.9,0,0,1,2.13-3.4c.18,1.49.35,3.34,1.07,4.45" transform="translate(-35.79 -222.47)"/><polygon class="cls-3" points="177.17 43.59 185.72 43.59 183.99 46.24 175.45 46.24 177.17 43.59"/><polygon class="cls-3" points="175.89 43.67 174.02 46.54 163.95 46.54 162.08 43.67 175.89 43.67"/><polygon class="cls-3" points="165.92 49.86 165.22 47.58 172.75 47.58 172.05 49.86 165.92 49.86"/><path class="cls-3" d="M207.82,273.37l-.28,5.18c-.39.07-.8.13-1.2.17l.14-5.35Z" transform="translate(-35.79 -222.47)"/><path class="cls-3" d="M205.61,273.37l-.09,5.42-.74,0-.76,0-.08-5.42Z" transform="translate(-35.79 -222.47)"/><path class="cls-3" d="M203.21,278.72c-.4,0-.81-.1-1.21-.17l-.28-5.18h1.34Z" transform="translate(-35.79 -222.47)"/><polygon class="cls-3" points="153.98 46.25 152.25 43.59 160.79 43.59 162.52 46.25 153.98 46.25"/><polygon class="cls-3" points="155.82 50.28 157.06 50.28 157.83 78.46 157.34 78.46 155.82 50.28"/><polygon class="cls-3" points="158.64 81.49 157.13 80.31 157.31 79.42 159.97 79.42 160.14 80.31 158.64 81.49"/><polygon class="cls-3" points="157.87 50.28 159.41 50.28 158.97 78.46 158.3 78.46 157.87 50.28"/><polygon class="cls-3" points="159.93 78.46 159.45 78.46 160.22 50.28 161.46 50.28 159.93 78.46"/><polygon class="cls-3" points="161.47 49.32 155.8 49.32 155.16 47.21 162.12 47.21 161.47 49.32"/><polygon class="cls-3" points="168.98 84.64 167.36 83.37 167.55 82.41 170.42 82.41 170.61 83.37 168.98 84.64"/><path class="cls-3" d="M202.47,287.19c.31,0,.66.07,1,.09l.45,16.56h-.51Z" transform="translate(-35.79 -222.47)"/><path class="cls-3" d="M204.15,287.32l.63,0,.61,0-.25,16.52h-.74Z" transform="translate(-35.79 -222.47)"/><path class="cls-3" d="M206.17,303.84h-.51l.44-16.56c.32,0,.67,0,1-.09Z" transform="translate(-35.79 -222.47)"/><polygon class="cls-3" points="176.51 50.28 177.75 50.28 178.52 78.46 178.04 78.46 176.51 50.28"/><polygon class="cls-3" points="179.33 81.49 177.83 80.31 178 79.42 180.66 79.42 180.84 80.31 179.33 81.49"/><polygon class="cls-3" points="178.56 50.28 180.1 50.28 179.67 78.46 179 78.46 178.56 50.28"/><polygon class="cls-3" points="180.63 78.46 180.14 78.46 180.91 50.28 182.15 50.28 180.63 78.46"/><polygon class="cls-3" points="182.17 49.32 176.5 49.32 175.85 47.21 182.81 47.21 182.17 49.32"/><path class="cls-3" d="M198.14,258.55a3.91,3.91,0,0,1,.31,1.5c0,1.81-.76,2.63-1.76,4-.3.39-.55.75-.77,1.07h-1.06a6.09,6.09,0,0,1,1-2,12.9,12.9,0,0,0,2.31-4.51" transform="translate(-35.79 -222.47)"/><path class="cls-3" d="M195.84,262a19,19,0,0,0-1.7,3.15h-.28a3.19,3.19,0,0,1-.05-.54c0-3.31,2.76-5.45,3.91-7.7.4,1.77-.72,3.33-1.88,5.09" transform="translate(-35.79 -222.47)"/><path class="cls-3" d="M191,260.37c0-1.46,1.65-4.47,1.65-6.05a.5.5,0,0,0,0-.23,3.87,3.87,0,0,1,.67,3.87c2-2.67,2.93-4.42,2.82-6.85a5.51,5.51,0,0,1,1.25,3.63c0,1.79-.62,2.4-2.4,4.91a7.7,7.7,0,0,0-1.79,5.05c0,.16,0,.29,0,.4h-.32c-1.1-1.72-1.85-3.13-1.85-4.73" transform="translate(-35.79 -222.47)"/><path class="cls-3" d="M218.83,258.55a3.89,3.89,0,0,1,.32,1.5c0,1.81-.77,2.63-1.77,4-.29.39-.54.75-.77,1.07h-1.05a6.09,6.09,0,0,1,1-2,12.81,12.81,0,0,0,2.3-4.51" transform="translate(-35.79 -222.47)"/><path class="cls-3" d="M216.53,262a19,19,0,0,0-1.7,3.15h-.28a3.19,3.19,0,0,1,0-.54c0-3.31,2.75-5.45,3.91-7.7.4,1.77-.73,3.33-1.89,5.09" transform="translate(-35.79 -222.47)"/><path class="cls-3" d="M211.74,260.37c0-1.46,1.64-4.47,1.64-6.05a.5.5,0,0,0,0-.23c.69.62,1.17,2,.67,3.87,2-2.67,2.93-4.42,2.82-6.85a5.51,5.51,0,0,1,1.25,3.63c0,1.79-.62,2.4-2.4,4.91a7.75,7.75,0,0,0-1.79,5.05c0,.16,0,.29,0,.4h-.33c-1.1-1.72-1.84-3.13-1.84-4.73" transform="translate(-35.79 -222.47)"/><path class="cls-3" d="M208.71,257.77a4.52,4.52,0,0,1,.33,1.67c0,2-.81,2.95-1.87,4.46-.31.44-.57.84-.81,1.2h-1.12a6.9,6.9,0,0,1,1-2.29,14.84,14.84,0,0,0,2.44-5" transform="translate(-35.79 -222.47)"/><path class="cls-3" d="M206.27,261.57a21,21,0,0,0-1.8,3.53h-.3a4.08,4.08,0,0,1,0-.61c0-3.7,2.91-6.1,4.14-8.62.42,2-.77,3.73-2,5.7" transform="translate(-35.79 -222.47)"/><path class="cls-3" d="M201.19,259.8c0-1.63,1.74-5,1.74-6.78a.6.6,0,0,0,0-.25c.73.69,1.24,2.24.71,4.33,2.1-3,3.1-4.94,3-7.67a6.43,6.43,0,0,1,1.32,4.07c0,2-.65,2.68-2.54,5.5a9,9,0,0,0-1.9,5.66c0,.17,0,.31,0,.44h-.34c-1.17-1.92-2-3.5-2-5.3" transform="translate(-35.79 -222.47)"/><path class="cls-4" d="M170.43,300c.26-.17.28-.19.12-.45l-.48-.74c-.33-.51-.46-.57-1-.36l-.26.1a.35.35,0,0,1-.23-.37c.32-.18.68-.4,1-.63s.7-.47,1-.67c.12,0,.29.23.24.35l-.19.2c-.4.39-.41.55-.08,1.05l.47.74c.17.26.21.25.46.08l1.3-.83c.88-.58.92-.69.7-1.15l-.18-.39c0-.1.23-.24.34-.22.36.61.65,1.09,1,1.54s.6.92,1,1.48c0,.11-.22.25-.33.22l-.25-.29c-.35-.39-.45-.4-1.34.17l-3.56,2.3c-.89.58-.93.69-.72,1.17l.09.21c0,.12-.24.27-.35.19-.24-.42-.54-.9-.84-1.36l-1.3-2c-.39-.61-.76-1.15-.86-1.27.16-.11.85-.55,1.48-1,.13,0,.27.18.27.34a3,3,0,0,0-.57.76,1.38,1.38,0,0,0,.29,1.14l.49.75c.2.31.22.3.59.06Z" transform="translate(-35.79 -222.47)"/><path class="cls-4" d="M169.25,292.31a1.94,1.94,0,0,0,.93-.58c.12-.21.13-.44-.18-1.21-.38-1-.54-1.25-2-1.38a.29.29,0,0,1-.1-.42,7.1,7.1,0,0,1,1.89-.24c.21.57.61,1.59.95,2.46l.58,1.41c.19.49.41,1,.7,1.66a.31.31,0,0,1-.36.18l-.21-.38c-.26-.45-.37-.48-1.35-.08l-3.93,1.58c-1,.4-1.06.5-.93,1l.08.33a.26.26,0,0,1-.38.12c-.2-.56-.4-1.09-.6-1.6s-.43-1-.66-1.55a.32.32,0,0,1,.37-.15l.15.26c.26.45.37.48,1.36.08Z" transform="translate(-35.79 -222.47)"/><path class="cls-4" d="M164.32,280.19a3.79,3.79,0,0,1,4.59,3.42,3.73,3.73,0,0,1-3.2,4.53,3.92,3.92,0,0,1-4.6-3.37,3.78,3.78,0,0,1,3.21-4.58m-2.68,4.58c.23,1.39,1.64,1.92,3.52,1.61,1.37-.22,3.49-1.07,3.19-2.9-.24-1.47-1.77-1.81-3.59-1.51s-3.35,1.41-3.12,2.8" transform="translate(-35.79 -222.47)"/><path class="cls-4" d="M162.49,277.91c-1.14-.06-1.27,0-1.36.43l-.06.3c-.06.12-.35.1-.4,0,0-.85,0-1.74,0-2.82a4.71,4.71,0,0,1,.53-2.21,1.87,1.87,0,0,1,1.73-.92,1.83,1.83,0,0,1,1.64,1.3c.06.11.12.12.25.07a9.46,9.46,0,0,0,2.93-1.62,1.38,1.38,0,0,0,.36-.75.22.22,0,0,1,.3,0,3,3,0,0,1,.06.9,2.35,2.35,0,0,1-1.31,2.15,14.29,14.29,0,0,1-1.81.8.59.59,0,0,0-.43.58c0,.4,0,.42.23.43l1.4.08c1,.05,1.13,0,1.25-.52l.07-.31a.39.39,0,0,1,.4,0c-.06.61-.1,1.13-.12,1.67s-.05,1.07-.05,1.66c-.07.09-.35.08-.4,0l0-.3c-.07-.52-.14-.59-1.19-.65Zm1.52-1.49c.4,0,.43,0,.47-.68a1.08,1.08,0,0,0-.28-.88,1.63,1.63,0,0,0-1.2-.47,1.5,1.5,0,0,0-1.76,1.4c0,.47,0,.49.55.52Z" transform="translate(-35.79 -222.47)"/><path class="cls-4" d="M167.79,267.94c1,.25,1.13.2,1.34-.28l.13-.3a.34.34,0,0,1,.39.1c-.17.59-.31,1.14-.43,1.65s-.25,1.09-.37,1.7a.34.34,0,0,1-.39-.09l0-.33c0-.53,0-.61-1.07-.86l-4.08-1c-1-.25-1.13-.2-1.34.29l-.13.29a.31.31,0,0,1-.39-.09c.16-.59.3-1.14.43-1.67s.25-1.08.37-1.69a.33.33,0,0,1,.39.1l0,.32c0,.53,0,.62,1.07.87Z" transform="translate(-35.79 -222.47)"/><path class="cls-4" d="M165.14,262.66c-1-.45-1.19-.52-1.47-.07l-.11.18c-.1.08-.4-.06-.35-.19.36-.89.69-1.71,1.2-2.81a8.11,8.11,0,0,1,1.46-2.24,3.45,3.45,0,0,1,4-.7,3.62,3.62,0,0,1,2.22,3.29,6.23,6.23,0,0,1-.73,2.84c-.23.48-.53,1-.7,1.34s-.47,1-.72,1.63a.34.34,0,0,1-.37-.17l.1-.34c.15-.5.09-.6-.86-1.05Zm4,.06c.57.26,1,.42,1.25.33a1.21,1.21,0,0,0,.7-.72c.84-1.78-.47-3.13-1.87-3.79-1.86-.87-3.43-.4-4.3,1.47-.13.27-.17.49-.11.59s.24.21.56.36Z" transform="translate(-35.79 -222.47)"/><path class="cls-4" d="M172.84,255c-.16.22-.17.26,0,.44l.8,1.14a1.18,1.18,0,0,0,.28.3c.06.05.16,0,.4-.21l.25-.23c.11,0,.33.13.31.25-.26.31-.54.67-.83,1.05s-.37.54-.68,1c-.13.06-.32-.1-.34-.22l.16-.26a.8.8,0,0,0,0-.9c-.25-.43-.56-.92-1-1.66l-1.6-2.5c-.42-.64-.6-1.05-.89-1.22a2.26,2.26,0,0,0,0-1.21c.09-.12.18-.14.34-.07.32.13.74.27,1.56.53l4.5,1.46c.69.22,1,.29,1.27,0l.31-.31c.09,0,.32.13.32.25-.35.43-.73.91-1.09,1.38s-.6.82-.9,1.25a.26.26,0,0,1-.33-.22l.17-.33c.12-.23.09-.32,0-.36a4.15,4.15,0,0,0-.75-.29l-1-.35c-.18-.06-.26,0-.5.32Zm.26-1.33c.15-.21.16-.28-.13-.38l-.92-.32c-.48-.17-1-.34-1.2-.4.14.25.41.68.72,1.13l.51.74c.19.27.25.24.42,0Z" transform="translate(-35.79 -222.47)"/><path class="cls-4" d="M183.17,248.34a3.92,3.92,0,0,1-1.82.78,3.67,3.67,0,0,1-1.38-1.28.29.29,0,0,1,.34-.28,2.42,2.42,0,0,0,2.63.3,1.14,1.14,0,0,0,.32-1.66,2.28,2.28,0,0,0-2.32-.55,2.6,2.6,0,0,1-2.69-.79c-.77-1-.48-2.34.86-3.31a4.44,4.44,0,0,1,1.15-.61,2.57,2.57,0,0,0,.37-.16,5.61,5.61,0,0,1,1.12,1.2c0,.14-.19.32-.34.29a1.81,1.81,0,0,0-2-.26,1.06,1.06,0,0,0-.32,1.54,1.69,1.69,0,0,0,1.6.44l.84-.12a2.61,2.61,0,0,1,2.65.91c.82,1.13.42,2.54-1,3.56" transform="translate(-35.79 -222.47)"/><path class="cls-4" d="M185.49,238.91c-.12-.25-.14-.3-.39-.18l-.64.3c-.75.36-.77.87-.72,1.77a.32.32,0,0,1-.42.09,15.19,15.19,0,0,0-.5-1.91.28.28,0,0,1,.12-.12.3.3,0,0,1,.16,0c.14.15.19.18,1-.19l3.83-1.83c.68-.32.83-.41.81-.67a.38.38,0,0,1,.12-.09.21.21,0,0,1,.19,0,8.6,8.6,0,0,0,.69,1.84c0,.11-.27.27-.36.21-.49-.58-.87-1-1.64-.62l-.62.29c-.24.12-.26.17-.13.43l2.16,4.54c.46,1,.56,1,1,.85l.44-.14a.35.35,0,0,1,.17.35c-.68.3-1.2.54-1.66.76s-1,.5-1.73.87c-.11,0-.23-.27-.17-.36l.44-.28c.43-.27.45-.39,0-1.35Z" transform="translate(-35.79 -222.47)"/><path class="cls-4" d="M193.31,240.16c-.26.08-.29.1-.3.32l-.06,1.39a1.19,1.19,0,0,0,0,.41c0,.07.12.11.44.08l.35,0c.09.06.17.3.08.39-.39.08-.83.2-1.29.32s-.62.2-1.12.34c-.14,0-.19-.27-.14-.38l.28-.11a.77.77,0,0,0,.52-.73c.07-.49.12-1.07.2-1.95l.25-3a4.16,4.16,0,0,0,.05-1.51,2.22,2.22,0,0,0,.77-.92c.15,0,.23,0,.32.15s.42.67.9,1.37l2.68,3.89c.41.6.58.82,1,.78l.44-.05a.35.35,0,0,1,.09.39c-.53.12-1.13.27-1.7.43s-1,.28-1.47.44a.26.26,0,0,1-.13-.38l.34-.15c.24-.11.26-.2.24-.27a5.28,5.28,0,0,0-.41-.69l-.55-.86c-.11-.16-.2-.16-.59,0Zm1-.9c.25-.07.3-.12.13-.38l-.53-.81c-.28-.43-.55-.84-.71-1,0,.27-.09.78-.12,1.33l0,.89c0,.33,0,.35.32.27Z" transform="translate(-35.79 -222.47)"/><path class="cls-4" d="M200.45,234.59c0-.27,0-.33-.3-.31l-.7.06c-.83.07-1,.54-1.31,1.4a.32.32,0,0,1-.43-.07,12.73,12.73,0,0,0,.22-2,.24.24,0,0,1,.16-.07.3.3,0,0,1,.16,0c.07.19.11.23,1,.16l4.23-.34c.75-.06.92-.09,1-.33a.22.22,0,0,1,.14,0,.2.2,0,0,1,.18.07,7.9,7.9,0,0,0,0,2c0,.11-.35.16-.42.07-.25-.71-.45-1.23-1.3-1.16l-.69,0c-.27,0-.3.06-.27.36l.4,5c.09,1.05.17,1.14.68,1.16l.46,0a.35.35,0,0,1,0,.4c-.74,0-1.31.07-1.82.12s-1.13.1-1.92.19a.33.33,0,0,1,0-.4l.51-.1c.51-.1.57-.21.48-1.26Z" transform="translate(-35.79 -222.47)"/><path class="cls-4" d="M209.2,236.72c0,.32,0,.35.28.38l.78.09c.58.07.73,0,.91-.52l.09-.28c.09-.08.37,0,.42.07-.07.36-.13.76-.18,1.19s-.09.84-.11,1.2a.32.32,0,0,1-.42,0l0-.3c0-.55-.18-.66-.76-.73l-.78-.09c-.31,0-.32,0-.36.32l-.16,1.34a2.14,2.14,0,0,0,.05,1.1c.13.22.33.33,1.16.43,1,.12,1.37.13,2.14-1.08a.29.29,0,0,1,.42.11,6.85,6.85,0,0,1-.69,1.75c-.6-.09-1.68-.23-2.61-.34l-1.47-.17c-.55-.07-1.1-.12-1.95-.2-.08-.08-.05-.35,0-.39l.54,0c.52,0,.6-.08.72-1.12l.5-4.22c.12-1,.06-1.11-.44-1.27l-.27-.09a.27.27,0,0,1,.07-.39l1.62.23,2.4.28c.72.08,1.37.15,1.52.14,0,.19,0,1-.06,1.77-.06.12-.32.12-.42,0a2.57,2.57,0,0,0-.33-.94,1.48,1.48,0,0,0-1.07-.49l-.9-.1c-.37,0-.38,0-.43.39Z" transform="translate(-35.79 -222.47)"/><path class="cls-4" d="M220.4,238c.46-.95.43-1,0-1.36l-.23-.17a.27.27,0,0,1,.19-.34l1.48.75c.5.24,1,.47,1.52.69a.32.32,0,0,1-.17.35l-.27-.08c-.5-.14-.6-.09-1.06.87l-1.14,2.37c-.57,1.2-1.07,2.59.49,3.34,1.31.63,2.26-.33,2.94-1.74l.59-1.24a8.11,8.11,0,0,0,.75-1.95c0-.26-.19-.43-.44-.62l-.25-.18a.35.35,0,0,1,.17-.35c.54.29.94.49,1.36.69s.76.36,1.16.52a.34.34,0,0,1-.16.35l-.21-.05c-.29-.06-.52-.1-.71.08a7.51,7.51,0,0,0-1.06,1.8l-.55,1.15a3.9,3.9,0,0,1-1.85,2.16,3,3,0,0,1-2.38-.23,3.5,3.5,0,0,1-1.76-1.55,3.13,3.13,0,0,1,.35-2.69Z" transform="translate(-35.79 -222.47)"/><path class="cls-4" d="M231.57,249.8c-.46.57-.92,1.13-1.14,1.43a.9.9,0,0,1-.69-.22s.07-.7.07-1.55l0-4.19a16.64,16.64,0,0,0,0-1.91c-.11,0-.24.2-.5.53l-1.4,1.71a7.72,7.72,0,0,0-1.19,1.72.77.77,0,0,0,.28.7l.22.24a.37.37,0,0,1-.25.31c-.47-.41-.81-.71-1.17-1s-.65-.52-1-.78a.35.35,0,0,1,.25-.3l.17.09c.28.15.5.23.72.11a8.3,8.3,0,0,0,1.45-1.52l1.83-2.24a2.67,2.67,0,0,0,.55-.8c.05-.21,0-.41-.26-.71l-.21-.24c0-.12.17-.32.28-.28.4.36.84.73,1.2,1s.56.45.76.59a9.82,9.82,0,0,0-.19,3.2l0,1.48c0,.77,0,1.29,0,1.66a1.59,1.59,0,0,0,.36-.37l1-1.22a7.58,7.58,0,0,0,1.18-1.72c.08-.25-.07-.47-.28-.7l-.2-.23a.34.34,0,0,1,.25-.31c.46.41.8.7,1.16,1s.65.52,1,.79a.36.36,0,0,1-.26.3l-.18-.1a.7.7,0,0,0-.71-.1,7.83,7.83,0,0,0-1.45,1.51Z" transform="translate(-35.79 -222.47)"/><path class="cls-4" d="M234.46,253.52c-.82.69-.84.79-.57,1.25l.17.28a.32.32,0,0,1-.32.25c-.38-.48-.73-.92-1.08-1.33s-.73-.84-1.14-1.3c0-.11.19-.28.3-.25l.25.2c.41.35.51.35,1.33-.35l3.2-2.71c.82-.69.83-.8.56-1.25L237,248c0-.11.19-.28.31-.25.38.48.74.92,1.09,1.34s.72.83,1.14,1.29a.34.34,0,0,1-.31.26l-.25-.21c-.4-.34-.51-.34-1.33.35Z" transform="translate(-35.79 -222.47)"/><path class="cls-4" d="M239.31,258.63c-1.48.21-2.41.41-3.09.52a.82.82,0,0,1-.28-.3.48.48,0,0,1-.08-.31c.2-.26.62-.74.87-1.08l3-4c.71-.93.7-1,.59-1.35l-.13-.45a.28.28,0,0,1,.35-.16c.29.5.47.84.77,1.35s.53.86.91,1.44c0,.12-.2.22-.33.21l-.23-.26c-.15-.15-.24-.18-.33-.13a8.75,8.75,0,0,0-.84,1l-1.68,2.17c-.28.36-.45.59-.57.76.21,0,.55-.06.91-.12l1.13-.19c.76-.13,2.1-.37,2.51-.46a1.35,1.35,0,0,0,.41-.11c.06,0,.09-.1,0-.36l-.1-.33c0-.12.24-.25.36-.16.25.48.47.85.69,1.22s.39.62.58.89c0,.1-.23.25-.33.22l-.2-.23a.81.81,0,0,0-.66-.33,11.85,11.85,0,0,0-2.13.18Z" transform="translate(-35.79 -222.47)"/><path class="cls-4" d="M243.3,263.22c-.31.11-.32.12-.22.41l.27.74c.2.56.32.66.87.59l.29,0c.11,0,.21.31.13.4-.35.11-.74.23-1.14.38l-1.13.44a.33.33,0,0,1-.15-.39l.25-.15c.47-.29.51-.45.31-1l-.26-.74c-.11-.29-.13-.3-.45-.18l-1.27.46a2.09,2.09,0,0,0-1,.54c-.14.21-.15.44.13,1.22.34.94.5,1.29,1.92,1.44a.28.28,0,0,1,.09.42,6.56,6.56,0,0,1-1.87.17c-.19-.58-.55-1.61-.87-2.49l-.5-1.39c-.18-.52-.38-1-.7-1.84a.32.32,0,0,1,.38-.13l.25.47c.26.46.34.5,1.33.15l4-1.45c1-.35,1-.44.94-1l-.05-.29a.29.29,0,0,1,.38-.12c.17.52.34,1,.53,1.56l.82,2.27c.25.69.48,1.3.55,1.43l-1.61.74c-.14,0-.24-.24-.19-.39a2.41,2.41,0,0,0,.7-.71,1.53,1.53,0,0,0,0-1.17l-.31-.86c-.13-.35-.15-.34-.55-.2Z" transform="translate(-35.79 -222.47)"/><path class="cls-4" d="M246.23,269.18c1.13-.16,1.25-.2,1.25-.69v-.31a.26.26,0,0,1,.4,0c.17.84.34,1.71.5,2.78a4.84,4.84,0,0,1-.1,2.27,1.86,1.86,0,0,1-1.53,1.23,1.83,1.83,0,0,1-1.86-1c-.07-.1-.14-.09-.26,0a9.44,9.44,0,0,0-2.57,2.15,1.39,1.39,0,0,0-.21.8.23.23,0,0,1-.29.09,2.94,2.94,0,0,1-.22-.88,2.33,2.33,0,0,1,.87-2.36,13.92,13.92,0,0,1,1.63-1.12.59.59,0,0,0,.31-.66c-.06-.39-.09-.41-.31-.38l-1.39.2c-1,.14-1.1.22-1.12.74l0,.31c0,.09-.31.13-.39.06-.07-.6-.13-1.12-.2-1.66s-.16-1.06-.27-1.65a.35.35,0,0,1,.4,0l.1.29c.16.5.25.56,1.28.41ZM245,270.92c-.39.06-.42.1-.33.76a1.11,1.11,0,0,0,.44.82,1.66,1.66,0,0,0,1.28.23,1.51,1.51,0,0,0,1.46-1.71c-.07-.46-.1-.48-.65-.41Z" transform="translate(-35.79 -222.47)"/><path class="cls-4" d="M241.1,279.27a4.05,4.05,0,0,1,.54-1.92,3.74,3.74,0,0,1,1.86-.26.28.28,0,0,1,0,.43c-.75.19-1.84.9-1.89,1.86a1.14,1.14,0,0,0,1.08,1.29c.92.05,1.52-.78,1.89-1.45a2.65,2.65,0,0,1,2.31-1.6c1.29.06,2.12,1.11,2,2.76a4.72,4.72,0,0,1-.25,1.29,2.72,2.72,0,0,0-.11.38,5.4,5.4,0,0,1-1.63.12.31.31,0,0,1,0-.45c.59-.16,1.45-.61,1.49-1.42a1.05,1.05,0,0,0-1-1.22,1.65,1.65,0,0,0-1.35,1l-.44.72a2.6,2.6,0,0,1-2.37,1.49c-1.4-.08-2.25-1.28-2.16-3" transform="translate(-35.79 -222.47)"/><path class="cls-4" d="M242,286.09c-1-.21-1.14-.16-1.33.33l-.12.3a.31.31,0,0,1-.39-.09c.15-.59.27-1.14.38-1.66s.21-1.1.31-1.71a.34.34,0,0,1,.39.08v.33c0,.53,0,.61,1.1.83l4.1.84c1.05.22,1.14.16,1.34-.33l.12-.3a.31.31,0,0,1,.39.08c-.15.6-.27,1.15-.38,1.69s-.21,1.08-.32,1.69a.34.34,0,0,1-.39-.08v-.33c0-.53-.05-.61-1.09-.82Z" transform="translate(-35.79 -222.47)"/><path class="cls-4" d="M245.43,292.3c.25.1.31.12.4-.14l.26-.66c.29-.78-.05-1.16-.7-1.78a.32.32,0,0,1,.25-.36,13.35,13.35,0,0,0,1.67,1.05.25.25,0,0,1,0,.17.26.26,0,0,1-.1.13c-.21,0-.26,0-.57.81l-1.51,4c-.27.7-.32.86-.14,1a.18.18,0,0,1,0,.14.23.23,0,0,1-.13.14,7.9,7.9,0,0,0-1.77-.86c-.08-.09,0-.39.12-.41.75.08,1.31.12,1.61-.68l.25-.63c.09-.26.07-.3-.2-.41l-4.7-1.8c-1-.37-1.1-.34-1.35.11l-.21.41a.38.38,0,0,1-.38-.14c.29-.68.51-1.21.69-1.69s.39-1.07.66-1.83a.33.33,0,0,1,.37.14l-.13.51c-.13.49-.06.59.93,1Z" transform="translate(-35.79 -222.47)"/><path class="cls-4" d="M236.46,298.94c-.89-.57-1-.56-1.34-.17l-.3.36a.36.36,0,0,1-.33-.22c.42-.61.73-1.08,1-1.54s.6-.94.94-1.52a.32.32,0,0,1,.33.22l-.16.35c-.21.48-.17.58.72,1.15l.47.31a2.49,2.49,0,0,0,1.31.47l3.09.37c.52.06.73.07,1-.23l.27-.29c.13,0,.35.12.31.26-.3.42-.54.76-.9,1.33s-.68,1.08-.87,1.42c-.09.06-.32-.06-.34-.2l.13-.37c.07-.2.07-.28.06-.29a2.92,2.92,0,0,0-.83-.18l-1.32-.21-1.22-.16c.29.58.68,1.21,1,1.78a5.07,5.07,0,0,0,.79,1.21c.06,0,.16,0,.35-.24l.17-.19c.1-.05.35.09.33.22-.26.37-.49.71-.71,1.05s-.42.67-.57,1c-.12.09-.35,0-.36-.17l.11-.28a.87.87,0,0,0,.06-.61,12.23,12.23,0,0,0-.82-1.72l-.71-1.3a2.47,2.47,0,0,0-1-1.14Z" transform="translate(-35.79 -222.47)"/><path class="cls-4" d="M195.59,319.28c-.22,1-.18,1.08.39,1.27l.47.15c.09.1,0,.4-.12.41-.42-.13-1.13-.31-1.86-.48s-1.49-.35-1.92-.43c-.11-.06-.05-.37.07-.42l.5.08c.59.09.69,0,.91-.95L195,315c.19-.78.19-1-.32-1.16l-.52-.2a.32.32,0,0,1,.07-.42,14.06,14.06,0,0,0,1.59,0c.56,0,1.06-.15,1.15-.13a.18.18,0,0,1,.13.17c-.09.27-.23.81-.37,1.4Z" transform="translate(-35.79 -222.47)"/><path class="cls-4" d="M198.39,319.64c.08-.9.77-1.46,1.77-1.87a2.14,2.14,0,0,1-1.12-2,2.21,2.21,0,0,1,2.66-1.87c1.37.12,2.27.94,2.18,2.09-.08.86-.79,1.25-1.47,1.56a2.47,2.47,0,0,1,1.43,2.4c-.1,1.14-1.07,2-3,1.85-1.41-.12-2.59-.86-2.48-2.19m3.83.6c.08-.95-.54-1.52-1.51-2.08a2.14,2.14,0,0,0-.75,1.49,1.38,1.38,0,0,0,1.16,1.64,1,1,0,0,0,1.1-1.05m-1.67-4.71c-.05.56.32,1.11,1.28,1.62a1.53,1.53,0,0,0,.69-1.27,1.17,1.17,0,0,0-.89-1.4,1,1,0,0,0-1.08,1" transform="translate(-35.79 -222.47)"/><path class="cls-4" d="M209.58,313.63c.1,0,.14.05.15.13a2.77,2.77,0,0,1-.58,1.3l-2.71.51c-.17,0-.22.16-.26.37l-.05.28c0,.29.11.32.35.33A8.6,8.6,0,0,1,209,317a2.25,2.25,0,0,1,1.44,1.93,2.92,2.92,0,0,1-1.56,2.75,7.57,7.57,0,0,1-3.22,1,.38.38,0,0,1-.12-.56,5.8,5.8,0,0,0,2.39-.72,2,2,0,0,0,1-1.73c-.13-1.73-2-1.78-3.18-1.79-.39,0-.44-.09-.39-.38l.52-2.84c.06-.32.14-.33.52-.41Z" transform="translate(-35.79 -222.47)"/><path class="cls-4" d="M215.65,318.87c.23.95.33,1.05.92,1l.5-.09c.12.05.18.36.07.42-.43.08-1.14.24-1.87.42s-1.49.37-1.91.5c-.12,0-.21-.31-.12-.41l.48-.15c.56-.19.61-.32.38-1.27l-.94-3.86c-.19-.78-.27-.94-.81-.89l-.56.06c-.12,0-.2-.31-.13-.41a15.83,15.83,0,0,0,1.44-.69c.48-.28.87-.61,1-.63a.17.17,0,0,1,.2.09c0,.27.16.82.31,1.41Z" transform="translate(-35.79 -222.47)"/><path class="cls-4" d="M204.77,226.33A51.27,51.27,0,1,0,256,277.59a51.26,51.26,0,0,0-51.26-51.26m0,101.67a50.41,50.41,0,1,1,50.4-50.4,50.4,50.4,0,0,1-50.4,50.4" transform="translate(-35.79 -222.47)"/><path class="cls-4" d="M204.78,228.61a49,49,0,1,0,49,49,49,49,0,0,0-49-49m0,95.88a46.9,46.9,0,1,1,46.9-46.89,46.89,46.89,0,0,1-46.9,46.89" transform="translate(-35.79 -222.47)"/><path class="cls-4" d="M204.77,243.71a33.89,33.89,0,1,0,33.89,33.89,33.89,33.89,0,0,0-33.89-33.89m32.8,33.89a32.8,32.8,0,1,1-32.8-32.8,32.79,32.79,0,0,1,32.8,32.8" transform="translate(-35.79 -222.47)"/><path class="cls-4" d="M213,266.06h8.55l-1.73,2.66h-8.54Zm-1.37,11.29a17.28,17.28,0,0,1-3,1l.33-6,.7-2.3h.76l.24-.37h0l.65,2.13Zm.08-11.21L209.81,269H199.74l-1.87-2.87Zm-10,6.19-.7-2.28h7.53l-.7,2.28Zm6.11,1-.28,5.18c-.39.07-.8.13-1.2.17l.14-5.35Zm-2.21,0-.08,5.42-.75,0c-.26,0-.5,0-.76,0l-.08-5.42Zm-2.4,5.35c-.25,0-.67-.07-1.21-.17l-.28-5.18h1.34Zm-2.26-.39a16.38,16.38,0,0,1-3-1l.3-5.54.65-2.13h0l.24.37h.76l.7,2.3Zm-11.18-9.61L188,266.06h8.54l1.73,2.66Zm1.84,4h1.24l.77,28.18h-.49ZM194.43,304l-1.51-1.17.17-.89h2.67l.17.89Zm-.78-31.21h1.55l-.44,28.18h-.67Zm2.07,28.18h-.48l.77-28.18h1.24Zm1.54-29.14h-5.67l-.64-2.11h7Zm7.51,35.32-1.62-1.26.19-1h2.87l.19,1Zm-2.3-19.92c.31,0,.66.07,1,.09l.45,16.56h-.51Zm1.68.13.63,0,.62,0-.26,16.52h-.74Zm2,16.52h-.51l.44-16.56c.32,0,.67,0,1-.09Zm6.13-31.09h1.24l.77,28.18h-.48ZM215.12,304l-1.5-1.17.17-.89h2.66l.18.89Zm-.77-31.21h1.54l-.44,28.18h-.66Zm2.06,28.18h-.48l.77-28.18h1.24ZM218,271.79h-5.67l-.65-2.11h7Zm-20.06,6.66a17.47,17.47,0,0,0,13.75,0l.35,6.43a19.09,19.09,0,0,1-14.45,0Zm10.81-20.68a4.52,4.52,0,0,1,.33,1.67c0,2-.81,2.95-1.87,4.46-.31.44-.57.84-.81,1.2h-1.12a6.9,6.9,0,0,1,1-2.29,14.84,14.84,0,0,0,2.44-5m-2.44,3.8a21,21,0,0,0-1.8,3.53h-.3a4.08,4.08,0,0,1,0-.61c0-3.7,2.91-6.11,4.14-8.62.42,2-.77,3.73-2,5.7m-5.08-1.77c0-1.63,1.74-5,1.74-6.78a.62.62,0,0,0,0-.25c.73.7,1.24,2.24.71,4.33,2.1-3,3.1-4.94,3-7.67a6.45,6.45,0,0,1,1.32,4.07c0,2-.65,2.68-2.54,5.5a8.94,8.94,0,0,0-1.9,5.66c0,.17,0,.31,0,.44h-.33c-1.17-1.92-2-3.5-2-5.3m-3.05-1.25a3.91,3.91,0,0,1,.31,1.5c0,1.81-.77,2.63-1.77,4l-.76,1.07h-1.06a6.09,6.09,0,0,1,1-2,12.9,12.9,0,0,0,2.31-4.51m-2.3,3.4a19,19,0,0,0-1.7,3.15h-.28a3.19,3.19,0,0,1-.05-.54c0-3.31,2.76-5.45,3.91-7.7.4,1.77-.72,3.33-1.88,5.09m-4.8-1.58c0-1.46,1.65-4.47,1.65-6.05a.5.5,0,0,0,0-.23,3.87,3.87,0,0,1,.67,3.87c2-2.67,2.93-4.42,2.82-6.85a5.51,5.51,0,0,1,1.25,3.63c0,1.79-.62,2.4-2.4,4.92a7.66,7.66,0,0,0-1.79,5c0,.16,0,.29,0,.4h-.32c-1.1-1.72-1.85-3.13-1.85-4.73m27.79-1.82a3.89,3.89,0,0,1,.32,1.5c0,1.81-.77,2.63-1.77,4-.29.4-.54.74-.77,1.07h-1.05a6.09,6.09,0,0,1,1-2,12.81,12.81,0,0,0,2.3-4.51m-2.3,3.4a19,19,0,0,0-1.7,3.15h-.28a4.73,4.73,0,0,1,0-.54c0-3.31,2.75-5.45,3.91-7.7.4,1.77-.73,3.33-1.89,5.09m-4.79-1.58c0-1.46,1.64-4.47,1.64-6.05a.5.5,0,0,0,0-.23c.69.62,1.17,2,.67,3.87,2-2.67,2.93-4.42,2.82-6.85a5.51,5.51,0,0,1,1.25,3.63c0,1.79-.62,2.4-2.4,4.92a7.72,7.72,0,0,0-1.79,5c0,.16,0,.29,0,.4h-.33c-1.1-1.72-1.84-3.13-1.84-4.73m10.64,23.15c-.12,0-.17-.08-.13-.36.07-.61.17-1.22.27-1.83,0-.22.09-.28.28-.27h.14a.08.08,0,0,0,0-.12l-.43-.06-.34-.07a4.43,4.43,0,0,1-.46.73l-.52.72c-.13.18-.2.28-.29.39,0-.1-.11-.33-.13-.4l-.29-1a1.78,1.78,0,0,1-.11-.72c-.16,0-.3,0-.44-.06l-.39-.08s-.06.09,0,.12l.14,0c.16.05.2.15.17.34s-.13.59-.19.86c-.09.43-.15.69-.22.95s-.11.3-.32.29H219a.09.09,0,0,0,0,.12l.44.06.43.09s.05-.09,0-.12l-.13-.05c-.17-.06-.16-.13-.12-.4s.13-.7.18-.95.1-.49.14-.69h0c0,.13.1.41.15.6l.23.85a8.25,8.25,0,0,1,.2.89.15.15,0,0,0,.11,0c.1-.18.39-.61.57-.87l.48-.66.33-.48h0l-.28,1.69c-.05.28-.06.3-.24.3h-.11c-.05,0,0,.1,0,.12.18,0,.36,0,.55.08l.5.1c.05,0,.07-.1,0-.12Zm3.55-.79a1.4,1.4,0,0,1-1.62,1.25,1.39,1.39,0,0,1-1.31-1.57,1.44,1.44,0,0,1,1.65-1.29,1.38,1.38,0,0,1,1.28,1.61m-2.36-.37c-.06.57.09,1.38.8,1.46.47.06.89-.25,1-1.08.07-.63-.12-1.39-.78-1.46-.41,0-.9.2-1,1.08m2.92-.41c0-.4,0-.45-.19-.48h-.11s0-.1,0-.12c.26,0,.62,0,1,0a1.69,1.69,0,0,1,.79.17.65.65,0,0,1,.35.62.73.73,0,0,1-.52.64s0,.05,0,.07a4.93,4.93,0,0,0,.71,1.11.59.59,0,0,0,.28.14s0,.06,0,.08a1,1,0,0,1-.28,0,.94.94,0,0,1-.85-.57c-.11-.18-.22-.41-.31-.58a.25.25,0,0,0-.26-.15c-.12,0-.13,0-.13.09l0,.53c0,.44,0,.46.22.49h.09s0,.11,0,.12l-.55,0h-.57a.08.08,0,0,1,0-.12h.09c.2,0,.23,0,.25-.47Zm.46.62c0,.13,0,.14.2.14a.51.51,0,0,0,.61-.57.58.58,0,0,0-.55-.64c-.22,0-.23,0-.23.2Zm2.35.89c.06.43,0,.45-.17.5l-.15,0s0,.11,0,.12l.62-.09.47-.06,1-.11a3.47,3.47,0,0,0,.1-.63.1.1,0,0,0-.14,0c-.1.35-.18.48-.7.54-.35,0-.43,0-.48,0s-.1-.21-.13-.43l-.06-.52c0-.1,0-.11.08-.12l.2,0c.36-.05.43-.05.48.12l.05.17s.12,0,.13,0,0-.28-.06-.44,0-.3,0-.41a.12.12,0,0,0-.14,0v.15c0,.18-.07.19-.43.23l-.2,0c-.1,0-.1,0-.12-.1l-.08-.7c0-.23,0-.24.14-.27l.28,0a1.3,1.3,0,0,1,.34,0c.13,0,.21.12.3.35a.12.12,0,0,0,.14,0c-.05-.17-.12-.49-.15-.56l-.55.08-.79.1-.54,0s0,.1,0,.13h.07c.19,0,.23,0,.29.45Zm3.1.06c.59-.15.86-.56.75-1a.93.93,0,0,0-.75-.66l-.28-.07c-.31-.08-.47-.24-.51-.41a.42.42,0,0,1,.35-.53.58.58,0,0,1,.67.35s.12,0,.13-.05a1.79,1.79,0,0,0-.22-.53,2.93,2.93,0,0,0-.58.06c-.59.14-.81.55-.71,1a1,1,0,0,0,.76.64l.2.06a.66.66,0,0,1,.56.48.45.45,0,0,1-.38.56c-.4.09-.72-.29-.85-.48a.09.09,0,0,0-.12.05,1.35,1.35,0,0,0,.27.59,1.28,1.28,0,0,0,.71,0M179,282.29c.23-.4.38-.66.51-.85a.36.36,0,0,1,.28-.14h.11s0-.1,0-.12l-.4,0-.45-.06a.11.11,0,0,0,0,.12l.12.05c.12,0,.13.07.05.23-.29.54-.6,1.09-.88,1.59l-.17-.55-.22-.78a3.9,3.9,0,0,1-.14-.57s0-.05.13-.06H178a.09.09,0,0,0,0-.13l-.55,0-.5-.07s0,.08,0,.11l.1,0c.16.05.19.11.28.4l.54,1.83c0,.18.1.39.13.56a.11.11,0,0,0,.07,0,.1.1,0,0,0,.08,0,11.37,11.37,0,0,1,.55-1Zm2-.39c0-.45.06-.46.26-.47h.09a.09.09,0,0,0,0-.12h-.56l-.56,0s0,.08,0,.11l.09,0c.19,0,.23.05.21.49l-.08,1.56c0,.44-.06.45-.25.46h-.1s0,.11,0,.12l.56,0,.55,0a.08.08,0,0,0,0-.12l-.09,0c-.2,0-.23-.05-.21-.49Zm1.19,0c0-.41,0-.45-.22-.47h-.11s0-.1,0-.12a8.25,8.25,0,0,1,1-.08,1.73,1.73,0,0,1,.8.1.65.65,0,0,1,.39.59.74.74,0,0,1-.47.69s0,0,0,.07a5,5,0,0,0,.79,1,.48.48,0,0,0,.29.12.06.06,0,0,1,0,.08,1.41,1.41,0,0,1-.27,0,1,1,0,0,1-.9-.51c-.12-.17-.25-.39-.35-.55a.23.23,0,0,0-.27-.13c-.13,0-.13,0-.13.1l0,.53c0,.44.06.45.26.47h.09a.09.09,0,0,1,0,.12h-.56l-.56,0s-.05-.09,0-.12h.09c.2,0,.23-.05.21-.5Zm.52.57c0,.14,0,.15.2.14a.53.53,0,0,0,.57-.63.58.58,0,0,0-.61-.59c-.21,0-.22,0-.21.22Zm2.57.74c.06.44,0,.45-.17.5l-.15,0a.1.1,0,0,0,0,.13l.62-.1.47-.06,1-.12a2.3,2.3,0,0,0,.1-.62.11.11,0,0,0-.14,0c-.1.35-.17.48-.7.55-.35,0-.42,0-.48,0a.73.73,0,0,1-.12-.43l-.07-.52c0-.1,0-.11.08-.12l.2,0c.36,0,.43,0,.48.12l.05.16a.14.14,0,0,0,.14,0c0-.13,0-.28-.07-.43s0-.31,0-.42a.11.11,0,0,0-.14,0V282c0,.18-.07.2-.43.24l-.2,0c-.1,0-.1,0-.12-.1l-.08-.7c0-.23,0-.25.14-.27l.28,0a1.24,1.24,0,0,1,.33,0c.14,0,.22.11.31.34,0,0,.12,0,.13,0s-.11-.5-.14-.57-.29.05-.55.09l-.79.1-.54.06a.08.08,0,0,0,0,.12h.07c.19,0,.23,0,.29.45Zm3.11.25c.6-.09.91-.48.84-1a.93.93,0,0,0-.68-.73l-.28-.1c-.29-.11-.44-.28-.46-.45a.42.42,0,0,1,.4-.5.59.59,0,0,1,.63.41s.12,0,.13,0a1.79,1.79,0,0,0-.17-.55,2.69,2.69,0,0,0-.57,0c-.61.09-.87.48-.81.89a1,1,0,0,0,.7.72l.19.07c.34.13.48.3.51.54a.45.45,0,0,1-.43.52c-.4.05-.69-.36-.79-.56a.1.1,0,0,0-.13,0,1.29,1.29,0,0,0,.21.61,1.3,1.3,0,0,0,.71.08m10.84-.9c-.11,0-.1,0-.17.07l-.29.45c-.14.21-.13.23,0,.29l.11.05s0,.11,0,.11l-.43-.12-.4-.09a.09.09,0,0,1,0-.11h.12a.25.25,0,0,0,.27-.13l.33-.45.92-1.3a.62.62,0,0,0,.15-.27c.15,0,.33-.13.34-.12s.05,0,.06,0c0,.2,0,.4,0,.6l.15,1.84c0,.3,0,.33.23.42l.06,0a.1.1,0,0,1,0,.12,4.15,4.15,0,0,0-.52-.15l-.5-.12s0-.1,0-.11h.09c.15,0,.18,0,.16-.19l-.05-.6c0-.12,0-.12-.14-.15Zm.53-.06c.11,0,.13,0,.12-.08l0-.53c0-.23,0-.31,0-.35h0a2.68,2.68,0,0,0-.2.29l-.29.43c-.08.11-.07.11,0,.14Zm1.95-.43c.06-.39.07-.44-.13-.5l-.1,0a.07.07,0,0,1,0-.11c.27,0,.62.06,1,.11a1.86,1.86,0,0,1,.77.27.65.65,0,0,1,.26.66.71.71,0,0,1-.6.57s0,0,0,.07a5,5,0,0,0,.56,1.18.53.53,0,0,0,.27.18.06.06,0,0,1,0,.08l-.27,0c-.4-.06-.59-.26-.78-.68-.08-.19-.16-.43-.23-.61s-.1-.16-.24-.18-.13,0-.14.07l-.08.53c-.07.43,0,.45.15.51l.09,0s0,.1,0,.11l-.54-.1-.56-.07a.08.08,0,0,1,0-.12h.09c.2,0,.24,0,.31-.44Zm.38.67c0,.13,0,.14.18.17a.52.52,0,0,0,.68-.49.57.57,0,0,0-.47-.7c-.22,0-.22,0-.25.16Zm2.85,1.15c0,.44,0,.45-.22.48l-.18,0a.09.09,0,0,0,0,.12l.64,0h.62a.09.09,0,0,0,0-.12h-.15c-.2,0-.24,0-.25-.47l-.07-1.8c0-.18,0-.18.11-.19h.23c.45,0,.53.06.6.39a.12.12,0,0,0,.13,0,3.09,3.09,0,0,1,0-.67s0,0-.05,0l0,0c0,.1-.11.12-.31.12l-1.7.07c-.29,0-.35,0-.37-.1s0,0,0,0h-.05a4.47,4.47,0,0,1-.14.64.11.11,0,0,0,.14,0c.14-.34.25-.39.63-.4h.24c.1,0,.11,0,.12.18Zm2.5-.22c.08.43.05.45-.14.51l-.15.05s0,.11,0,.12l.62-.14.46-.09,1-.19a2.41,2.41,0,0,0,.06-.63.11.11,0,0,0-.14,0c-.08.36-.15.49-.67.59-.34.06-.42.05-.48,0a.9.9,0,0,1-.16-.41l-.1-.53c0-.1,0-.11.08-.13l.2,0c.35-.08.42-.08.49.09l.06.16s.12,0,.13,0-.07-.28-.1-.43,0-.3-.07-.41-.1,0-.13,0v.14c0,.18-.06.2-.42.27l-.2,0c-.09,0-.1,0-.12-.09l-.13-.69c-.05-.24-.05-.25.13-.28l.27-.06a1.32,1.32,0,0,1,.34,0c.13,0,.22.09.33.32a.12.12,0,0,0,.13,0c-.06-.17-.15-.49-.18-.56l-.55.12-.79.15-.53.1s0,.09,0,.12h.06c.2,0,.24,0,.33.43Zm3.08,0c.59-.16.85-.58.73-1a1,1,0,0,0-.77-.65l-.28-.07a.61.61,0,0,1-.52-.39A.43.43,0,0,1,210,281a.6.6,0,0,1,.67.33.11.11,0,0,0,.13,0,2.18,2.18,0,0,0-.23-.52,2.34,2.34,0,0,0-.58.06c-.59.15-.8.57-.69,1a1,1,0,0,0,.77.63l.2.05a.68.68,0,0,1,.57.48.45.45,0,0,1-.36.56c-.4.1-.73-.27-.86-.46a.09.09,0,0,0-.12.05,1.29,1.29,0,0,0,.28.58,1.31,1.31,0,0,0,.71,0m-19.24,1a63.27,63.27,0,0,1-9.78,1.13c-2.87,0-4.77-.65-5.57-1.68a38,38,0,0,1-1.07-5.69,24.14,24.14,0,0,0,7.35,1.07,45.83,45.83,0,0,0,8.72-1.22ZM181.1,269.63a32.9,32.9,0,0,1,2.13,3.4,18.28,18.28,0,0,0,2.68-3c.17,2.43-.24,5.27-3.31,8.47a20.79,20.79,0,0,1-7.71-1.14,1.08,1.08,0,0,1,.89-1.07c1.24-.4,3.39-.82,4.25-2.18a11.65,11.65,0,0,0,1.07-4.45m37.5,8.66a46,46,0,0,0,8.73,1.22,24,24,0,0,0,7.34-1.07,37.89,37.89,0,0,1-1.06,5.69c-.8,1-2.7,1.68-5.57,1.68a63.13,63.13,0,0,1-9.78-1.13ZM197,265.1c1.08-1.38,2.19-2.57,2.19-4.68a6.59,6.59,0,0,0-1.22-4.07,3.58,3.58,0,0,0,.27-1.32,9,9,0,0,0-3.42-6.69,7.07,7.07,0,0,1,.7,2.75,7.2,7.2,0,0,1-1.43,4.41,8.1,8.1,0,0,0-2.55-3.93,14.35,14.35,0,0,1,.31,2.47c0,1.53-1.69,5.12-1.69,6.28a9.77,9.77,0,0,0,1.65,4.78h-5.53l3,4.58h.7l.65,2.13.29,5.42a60.86,60.86,0,0,1-6.82,1.14c3.52-3.95,3.44-9,2-11.22a9,9,0,0,1-2.6,4.19,37.34,37.34,0,0,0-3.2-4.53c-.11,2.59-.4,6.06-1.26,6.92-1.36,1.36-3.41,1-4.62,2.22s-.25,5.06.62,8.64c1,1.39,3.17,2.26,6.52,2.26a61.94,61.94,0,0,0,9.82-1.12l.87,15.74-.33,1.71,2.56,2,2.56-2-.34-1.71.84-15.5a22.38,22.38,0,0,0,3.93,1.06l1,17.39-.36,1.85,2.76,2.16,2.77-2.16-.36-1.85.94-17.38a23.71,23.71,0,0,0,3.93-1.06l.84,15.49-.33,1.71,2.56,2,2.56-2-.33-1.71.86-15.74a61.93,61.93,0,0,0,9.83,1.12c3.35,0,5.54-.87,6.52-2.26.87-3.58,1.77-7.49.62-8.64s-3.26-.86-4.62-2.22c-.86-.86-1.15-4.33-1.27-6.92a37.28,37.28,0,0,0-3.19,4.53,9,9,0,0,1-2.61-4.19c-1.45,2.24-1.53,7.27,2,11.22a61,61,0,0,1-6.83-1.14l.3-5.42.65-2.13h.69l3-4.58h-5.59c1.09-1.38,2.19-2.57,2.19-4.68a6.53,6.53,0,0,0-1.22-4.07,3.58,3.58,0,0,0,.27-1.32,9,9,0,0,0-3.41-6.69,6.72,6.72,0,0,1-.74,7.16,8,8,0,0,0-2.54-3.93,15.2,15.2,0,0,1,.3,2.47c0,1.53-1.68,5.12-1.68,6.28a9.85,9.85,0,0,0,1.64,4.78h-5c1.15-1.55,2.32-2.88,2.32-5.25a7.58,7.58,0,0,0-1.29-4.55,4.19,4.19,0,0,0,.29-1.48,10.2,10.2,0,0,0-3.63-7.49,8.35,8.35,0,0,1,.75,3.08,8.49,8.49,0,0,1-1.52,4.94,9.19,9.19,0,0,0-2.7-4.41,18.42,18.42,0,0,1,.32,2.77c0,1.72-1.79,5.73-1.79,7A11.43,11.43,0,0,0,202,265.1Zm32.53,9c.86,1.36,3,1.78,4.25,2.18a1.09,1.09,0,0,1,.89,1.07,20.82,20.82,0,0,1-7.71,1.14c-3.08-3.2-3.49-6-3.31-8.47a17.84,17.84,0,0,0,2.68,3,32.9,32.9,0,0,1,2.13-3.4c.18,1.49.35,3.34,1.07,4.45" transform="translate(-35.79 -222.47)"/><path class="cls-5" d="M103.59,263.11a7.88,7.88,0,0,1-5.76,1.64c-3.56-.35-7.3-3.09-7.3-3.09s-3.74,2.74-7.31,3.09a7.88,7.88,0,0,1-5.76-1.64s-1.09,2.33.61,10.55a33.13,33.13,0,0,0,12.46,19.83A33.18,33.18,0,0,0,103,273.66C104.69,265.44,103.59,263.11,103.59,263.11ZM102,274a30.44,30.44,0,0,1-11.44,18.2A30.44,30.44,0,0,1,79.09,274c-1.56-7.55-.94-9.31-.94-9.31a12.17,12.17,0,0,0,5.67.74c3.27-.32,6.71-2.84,6.71-2.84s3.43,2.52,6.7,2.84a12.17,12.17,0,0,0,5.67-.74S103.52,266.44,102,274Z" transform="translate(-35.79 -222.47)"/><path class="cls-5" d="M90.53,263.74a18.29,18.29,0,0,0,1.75,1.09v4.49a28.67,28.67,0,0,0,10.24-2.26c0-.09-.11-1.5-.11-1.5a16.18,16.18,0,0,1-5.44.34c-3.14-.31-6.44-2.73-6.44-2.73s-3.3,2.42-6.44,2.73a16.14,16.14,0,0,1-5.44-.34,4,4,0,0,0-.11,1.51,29.15,29.15,0,0,0,10.31,2.26v-4.54A17.54,17.54,0,0,0,90.53,263.74Z" transform="translate(-35.79 -222.47)"/><path class="cls-5" d="M102.52,267.06Z" transform="translate(-35.79 -222.47)"/><path class="cls-5" d="M90.53,291a17.52,17.52,0,0,1-1.68-1.35V273.62a50,50,0,0,1-9.7-1.55c.11.63.24,1.31.4,2.05a29.23,29.23,0,0,0,11,17.48,29.23,29.23,0,0,0,11-17.48c.16-.75.29-1.44.4-2.07a52.59,52.59,0,0,1-9.63,1.56v16A18,18,0,0,1,90.53,291Z" transform="translate(-35.79 -222.47)"/><path class="cls-5" d="M97.43,269.63a3.66,3.66,0,0,0-.58,2.49.45.45,0,0,1-.38.25c-.3,0-.44-.2-.51-.47-.16-.68.49-1.14.59-1.78a1.75,1.75,0,0,0-.87.09c-.12.18-.12.4-.35.43-.41-.09-.24-.61-.31-.94l.12-.11a10.71,10.71,0,0,1,2.18-.15Z" transform="translate(-35.79 -222.47)"/><path class="cls-5" d="M85.28,269.62l-.19,2.17c.11.23.56.21.47.58a6.33,6.33,0,0,1-1.84-.1.26.26,0,0,1-.06-.38.61.61,0,0,0,.62-.65v-1c-.1-.19-.59-.17-.43-.54.34-.13.75-.08,1.06-.34A.43.43,0,0,1,85.28,269.62Z" transform="translate(-35.79 -222.47)"/><path class="cls-5" d="M93.71,270.89a1,1,0,0,0-.24-.8c-.32-.35-1.19-.26-1.19-.26s-.9.19-1,.64a.83.83,0,0,0,.23.79c0,.34-.32.55-.22.93a.91.91,0,0,0,.66.62,1.81,1.81,0,0,0,1.93-.53C94.28,271.69,93.2,271.39,93.71,270.89Zm-1.26-.57a.36.36,0,0,1,.41.24c0,.22-.1.52-.36.51s-.41-.13-.4-.35A.44.44,0,0,1,92.45,270.32Zm.23,2.07a.44.44,0,0,1-.55-.36.58.58,0,0,1,.39-.47c.19-.07.42.12.48.24S93,272.36,92.68,272.39Z" transform="translate(-35.79 -222.47)"/><path class="cls-5" d="M89.5,271.12a.9.9,0,0,0,0-.87,1.62,1.62,0,0,0-1.15-.45,1.4,1.4,0,0,0-1.1.41c-.24.33,0,.72.08,1-.2.25-.48.66-.3,1,.35.65,1.21.68,1.85.62a.88.88,0,0,0,.69-.46C89.78,272.05,89,271.55,89.5,271.12Zm-1.21-.76a.34.34,0,0,1,.44.28.45.45,0,0,1-.35.44.33.33,0,0,1-.4-.31A.4.4,0,0,1,88.29,270.36Zm0,2.1a.49.49,0,0,1-.48-.31.48.48,0,0,1,.36-.55.48.48,0,0,1,.55.32C88.83,272.17,88.49,272.45,88.33,272.46Z" transform="translate(-35.79 -222.47)"/><path class="cls-6" d="M135.21,298.65a5.71,5.71,0,0,1,7-2.94s.49.21.64-.24-.35-.58-.35-.58A5.71,5.71,0,0,1,145,283.83s.53.1.57-.36-.48-.45-.48-.45a5.71,5.71,0,0,1,0-11.34.5.5,0,1,0-.11-1,5.71,5.71,0,0,1-2.53-11.05s.48-.2.32-.63a.49.49,0,0,0-.64-.27,5.71,5.71,0,0,1-4.95-10.2.46.46,0,0,0,.18-.67.47.47,0,0,0-.69-.14,5.71,5.71,0,0,1-7.11-8.84s.39-.36.06-.69-.67.08-.67.08a5.71,5.71,0,0,1-8.88-7.05.47.47,0,0,0-.1-.69.49.49,0,0,0-.69.19A5.71,5.71,0,0,1,109,225.83s.21-.48-.24-.64-.58.35-.58.35a5.71,5.71,0,0,1-11.06-2.49s.06-.53-.37-.57-.44.48-.44.48A5.71,5.71,0,0,1,85,223a.5.5,0,1,0-1,.11,5.71,5.71,0,0,1-11,2.53s-.2-.5-.66-.33a.46.46,0,0,0-.24.65,5.71,5.71,0,0,1-10.2,5s-.35-.41-.71-.17-.1.69-.1.69a5.71,5.71,0,0,1-8.84,7.1s-.37-.38-.68-.07.07.68.07.68A5.71,5.71,0,0,1,44.54,248s-.45-.28-.7.12.2.67.2.67A5.71,5.71,0,0,1,39.14,259s-.49-.2-.63.21.35.6.35.6a5.71,5.71,0,0,1-2.49,11.06s-.52-.1-.58.35.48.46.48.46a5.71,5.71,0,0,1,0,11.34s-.52.11-.46.57.58.43.58.43a5.71,5.71,0,0,1,2.53,11.05s-.49.18-.34.61.66.29.66.29a5.71,5.71,0,0,1,4.95,10.2s-.43.3-.2.67.71.15.71.15a5.71,5.71,0,0,1,7.11,8.83h0s-.38.37-.07.68.68-.07.68-.07a5.71,5.71,0,0,1,8.87,7.05s-.29.44.09.68.71-.18.71-.18a5.71,5.71,0,0,1,10.22,4.9s-.22.48.24.64.58-.36.58-.36a5.71,5.71,0,0,1,11.06,2.49s-.12.52.35.57.46-.47.46-.47a5.71,5.71,0,0,1,11.34,0,.45.45,0,0,0,.55.45.48.48,0,0,0,.45-.57,5.71,5.71,0,0,1,11-2.53s.19.5.64.34.26-.66.26-.66a5.71,5.71,0,0,1,10.2-4.95s.3.44.69.19.12-.7.12-.7a5.71,5.71,0,0,1,8.84-7.11s.39.35.68.06-.07-.67-.07-.67a5.71,5.71,0,0,1,7.05-8.87.49.49,0,0,0,.69-.12.5.5,0,0,0-.19-.68A5.71,5.71,0,0,1,135.21,298.65ZM90.67,323.7A46.35,46.35,0,1,1,137,277.35,46.34,46.34,0,0,1,90.67,323.7Z" transform="translate(-35.79 -222.47)"/><path class="cls-6" d="M90.66,244.42a32.93,32.93,0,1,0,32.93,32.93A32.92,32.92,0,0,0,90.66,244.42Zm0,64.58a31.65,31.65,0,1,1,31.65-31.65A31.64,31.64,0,0,1,90.66,309Z" transform="translate(-35.79 -222.47)"/><path class="cls-6" d="M102.68,310.26c-.2-.43-.76-.16-1-.24,0-.23.2-.55,0-.75l-.12-.08a3.62,3.62,0,0,0-2.82.87,57.14,57.14,0,0,0-3.61,5.08c-.16.16-.36,0-.52,0-1.74-.23-3.09.88-4.72,1.27-.67.2-1.31.6-2,.76a8.56,8.56,0,0,0-1.15-.88,2.5,2.5,0,0,0-1.91.28,38.39,38.39,0,0,0-5.63,3.77c-.28.32-1,.44-.92,1,.08.12.24.36.44.32l4.76-3.17a4.16,4.16,0,0,1,2.66-1c.16,0,.4.19.4.39-.6,1.23-1,2.54-1.75,3.73-.08.36-.47.72-.2,1.07,2.94-.43,5.76-1,8.73-1.39l.24-.15c.4-1.16,1.79-1,2.62-1.67.68-.44.72-1.35.8-2.14a32.43,32.43,0,0,1,3.88-5.8c.48-.27,1-.71,1.59-.63A.5.5,0,0,0,102.68,310.26Zm-1.43-.71a3.88,3.88,0,0,1-1,.28c-.36.15-.72.35-1.07.47A2.28,2.28,0,0,1,101.25,309.55Zm-.28.71c-.35.16-.67.68-1.07.28.12-.24.52-.2.72-.36A1,1,0,0,1,101,310.26Zm-1.7.52a.56.56,0,0,1,.31.2.23.23,0,0,1-.31.2c-.12,0-.16-.12-.2-.2S99.15,310.82,99.27,310.78Zm-.44.83a.22.22,0,0,1,.2.08,24.4,24.4,0,0,0-1.31,2.1c-.08.08-.2.2-.32.12a.56.56,0,0,1,.08-.43C98,312.84,98.35,312.21,98.83,311.61Zm-2.26,1.83c.71-.8,1.23-1.79,1.94-2.58l0,.12-.2.39a13.33,13.33,0,0,1-1.82,2.42h-.08Zm.63.87a.18.18,0,0,1-.16.2.29.29,0,0,1-.27-.2l0-.2A.4.4,0,0,1,97.2,314.31Zm-1.78,1,.79-1.11a2.49,2.49,0,0,1-.79,1.43C95.3,315.58,95.38,315.38,95.42,315.3Zm-3,.56c.64-.12,1.31-.68,1.95-.28a28.25,28.25,0,0,1-3.22,1.07,21.18,21.18,0,0,1-3.09,1A32,32,0,0,1,92.4,315.86ZM86.33,317c-1.23-.4-2.14.55-3.14,1-1.46,1.11-2.93,2.14-4.44,3.17l-.08-.07a18.47,18.47,0,0,1,2.46-1.83c1.51-1,3-2.22,4.72-2.66a1.68,1.68,0,0,1,1.59.83C87.08,317.92,86.73,317.13,86.33,317Zm5.36,4.05c-2.23.27-4.41.71-6.55,1.07-.08-.12.12-.2.2-.24,2.54-.44,5-.87,7.58-1.27l0,.08C92.68,321,92.08,320.94,91.69,321.06ZM96,318.67a1,1,0,0,1-.71.56c-.4.16-.8.28-1.19.44a3.47,3.47,0,0,1-2,.75c-2.22.24-4.44.68-6.62.95l-.08-.12a24.75,24.75,0,0,1,1.43-2.81c2.69-.56,5.11-1.83,7.85-2.26.48,0,1-.08,1.27.31A2.13,2.13,0,0,1,96,318.67Zm.2-2.65a.39.39,0,0,1,.12-.56c.08-.12.4-.67.48-.24C96.57,315.5,96.53,316,96.17,316Zm5.91-5.52c-2.18.36-3.21,2.66-4.24,4.29a18.18,18.18,0,0,1-1.07,1.62h-.08l0-.27c1.5-2.11,2.38-5.24,5.35-5.72Z" transform="translate(-35.79 -222.47)"/><path class="cls-6" d="M91.89,237.85c-.36-.44-1.17-.32-1.41-1,0-.93.93-1.77.36-2.74a2.44,2.44,0,0,0,.57-1.36,2.11,2.11,0,0,0-.65-1.33c-.16,0-.12.2-.24.24-.24-.16-.2-.56-.52-.68-.28.16,0,.88-.36.92-.12-.41-.62-.72-.61-1.13a.53.53,0,0,0-.26-.08.7.7,0,0,0-.25.08c.07.69-.77.82-.89,1.34a1.91,1.91,0,0,0,0,1.8c-.81,1.13.4,2.13.4,3.26-.2.44-1,.32-1,1s.48.85.4,1.41c0,.24.24.28.36.48a1.12,1.12,0,0,0,.32,1.25c-.12.28-.52.6-.2.92.08.4.52.24.8.28.24.37,0,1,.53,1.17.76,0,.4-.92.8-1.29.84,0,1.85,1.09,2.65.2.36-.48,0-1.16.77-1.36.24-.2.12-.6.08-.85C93.09,239.5,92.45,238.7,91.89,237.85Zm-1.65-4.26.56-.68c.2.08,0,.32,0,.4a1.3,1.3,0,0,1-.52.6C90.12,233.91,90.2,233.71,90.24,233.59Zm-.8-.2a3.06,3.06,0,0,1,.68-.92c0,.48-.4.88-.4,1.4-.08.08-.16.12-.24.08S89.4,233.55,89.44,233.39Zm-.69-1.81c.2,0,.32.24.4.4a9,9,0,0,1-.28,1.89c-.08.16-.32,0-.48.08-.4-.24-.4-.72-.44-1.12A3.19,3.19,0,0,1,88.75,231.58Zm-1,6.87a.26.26,0,0,1-.2-.28c.32-.12.88-.48,1.08,0A1.15,1.15,0,0,1,87.79,238.45Zm.12.85a1.05,1.05,0,0,1,1.16-.24c0,.2-.24.2-.36.28S88,239.66,87.91,239.3ZM89,241.75a.43.43,0,0,1-.36.16c-.08,0-.16-.12-.08-.2S89.2,241.31,89,241.75Zm-.48-.92c-.16,0-.28-.29-.08-.37s.72-.28.81.08C89.15,240.87,88.75,240.83,88.51,240.83Zm.53-4.71a1.1,1.1,0,0,0-.33.77,4.68,4.68,0,0,1-.68-2.25c.28-.2.64,0,1-.16.49.12,1.17,0,1.49.4-.2.52-.2,1.12-.6,1.48C89.72,236.12,89.32,235.84,89,236.12Zm.4,6.47,0,0c-.16-.12-.12-.48,0-.64l0-.12C89.6,242,89.48,242.35,89.44,242.59Zm.16-1.48h-.08a.2.2,0,0,1,0-.28C89.72,240.87,89.56,241,89.6,241.11Zm0-1.21c-.49-.24.12-.6.08-1A1.56,1.56,0,0,1,89.64,239.9Zm2.85,1.41c-.2.32.16.92-.36,1-.6-.28-1.29-.44-1.93-.68-.36-.64.08-1.29.08-2l0,0c.28.28.52.8,1,.72.24-.32-.37-.48-.45-.8.08-.68-.56-1.09-1-1.45a1.31,1.31,0,0,1-.48-1.36c.4.12.48.56.84.72l1.45.88a21.69,21.69,0,0,0,1.44,2.26C93.13,241,92.69,241.11,92.49,241.31Z" transform="translate(-35.79 -222.47)"/><path class="cls-7" d="M48.67,274.75c.29-.15.88,0,.88-.52h0c-.08-.18-.3,0-.44-.14a5.76,5.76,0,0,1-.59.18.63.63,0,0,0,0,.41A.21.21,0,0,0,48.67,274.75Zm5.38,1a.25.25,0,0,0-.15.26h0a.43.43,0,0,0,.51.07c.15-.14.48-.14.48-.44h0C54.63,275.22,54.41,275.91,54.05,275.73Zm-4.39,1.76c-.3-.19-.26.25-.44.36h0c0,.14.18.07.33.07.14-.33.51-.22.77-.33s.58.15.62-.22h0a.44.44,0,0,0-.44-.3C50.28,277.38,49.8,277.08,49.66,277.49Zm2.16-3.22a.67.67,0,0,0-.37.4h0c.15.37.44,0,.7,0,.11-.22.29-.11.47-.18.07-.48.59,0,1-.18.19-.22.59,0,.66-.37,0,0,0-.06,0-.09-.09-.38-.55,0-.76,0s-.69-.07-.8.26C52.36,273.83,52.14,274.34,51.82,274.27Zm-2,1.79c-.26.29-.88.22-.84.62h.47c.3-.14.7-.18.92-.43h0A.91.91,0,0,0,49.84,276.06Zm-.33-1c-.48,0-.62.48-.95.66h0c0,.11.11.22.22.19l1.1-.55v-.11h0A.77.77,0,0,0,49.51,275.07Zm-.62,2.86a.17.17,0,0,0-.06.22.13.13,0,0,0,.06.07c.11,0,.26,0,.29-.11h0A.25.25,0,0,0,48.89,277.93Zm5.29-3.06a.13.13,0,0,0,0,.06.32.32,0,0,0,.4-.22.19.19,0,0,0,0-.08c-.07-.12-.25.08-.38.08A.16.16,0,0,0,54.18,274.87Zm-3.79,4.23a.19.19,0,0,0,0,.19.18.18,0,0,0,.12.1c.11,0,.15,0,.15-.11a.29.29,0,0,0,0-.13C50.6,279,50.44,279,50.39,279.1Zm1.28-.15a.74.74,0,0,0-.92,0,.22.22,0,0,0,0,.11c0,.08.14.1.2.15.25,0,.66,0,.73-.22Zm2.93-2.23a4.69,4.69,0,0,1-1.06,0c-.06,0-.07.08,0,.12a.16.16,0,0,0,.08.1c.3.11.77,0,1.1.15.11-.08.4-.08.33-.3a.19.19,0,0,0,0-.07C54.9,276.58,54.69,276.62,54.6,276.72Zm-1.5-3.44c.14-.22.58,0,.66-.33h0a.14.14,0,0,0,0-.06v0c-.22-.37-.76.05-1.1.12l0,.11a.25.25,0,0,0,0,.1C52.66,273.39,52.9,273.15,53.1,273.28Zm-2,.66c.22.07,0-.15.15-.18.33,0,.47-.26.73-.37s.4,0,.44-.22h0c-.11-.15-.22-.26-.4-.22-.26.29-.77.15-1,.51a.27.27,0,0,0,0,.27A1.91,1.91,0,0,0,51.12,273.94Zm-3.07.81a.19.19,0,0,0,.29.1v-.1h0c0-.11-.33-.18-.29,0h0Zm-.22.29c0,.11.18.11.18,0a.13.13,0,0,0,0-.13.14.14,0,0,0-.13-.09s-.09.09-.07.14A.1.1,0,0,0,47.83,275Zm5.52.14c.22-.11.44,0,.62-.07a.08.08,0,0,0,0-.07c0-.16-.27-.16-.36,0-.18-.15-.48-.08-.7,0v.18h0A.38.38,0,0,0,53.35,275.18Zm-5.63.11a.64.64,0,0,0,0-.28c-.11-.21-.48.32-.78.17a.7.7,0,0,0,0,.25.23.23,0,0,0,.12.19C47.21,275.51,47.72,275.7,47.72,275.29Zm5.05,0a.2.2,0,0,0,0-.09c-.06-.16-.33,0-.42,0s-.44.3-.4.55h0C52.36,276,52.44,275.33,52.77,275.26Zm.77.8c.14,0,.22,0,.25-.11h0c-.07-.11-.18-.22-.29-.11a.19.19,0,0,0,0,.13A.1.1,0,0,0,53.54,276.06Zm-.52.15c.08,0,.22,0,.26-.15h0l0,0a.25.25,0,0,0,0-.07c0-.06-.07-.12-.18-.07-.07.36-.48-.08-.59.29-.06.1-.15.28-.08.39l0,.05A.84.84,0,0,0,53,276.21Zm-4.83-.15c.08,0,.15,0,.15,0s-.07-.08-.15-.08Zm-.18.15h0c-.22-.37-.44.14-.62.25a.06.06,0,0,0,0,.06c0,.06.09.12.15.09C47.65,276.39,48.05,276.54,48,276.21Zm7.28.47a.13.13,0,0,0,0-.17.24.24,0,0,0-.14-.12c-.11.06-.16.15-.14.23a.07.07,0,0,0,0,.06C55.15,276.72,55.22,276.76,55.29,276.68Zm-6.58.26h0l-.15,0c-.22.22-.66.15-.7.51a.2.2,0,0,0,0,.1c.06.07.19.05.27.05C48.27,277.31,48.78,277.31,48.71,276.94Zm4.54.1c0-.23-.35,0-.45.12s0,.2,0,.28a.2.2,0,0,0,.05.09c.22.07.29-.22.4-.37A.57.57,0,0,0,53.25,277Zm2.48.34a.15.15,0,0,0,0-.07.15.15,0,0,0-.1-.12c-.37.15-.58.59-1.06.41-.11,0,0,.14,0,.18h0a1.73,1.73,0,0,0,.88,0C55.51,277.6,55.77,277.56,55.73,277.38Zm-1.54.33h0a1.15,1.15,0,0,0-.87.07c0,.16-.29.26-.23.41l0,.07c.26.14.41-.15.59-.3s.55,0,.47-.25Zm-3,.4h0c-.37-.44-.77.11-1.14.22-.4.47-1.09.51-1.46.95h0c0,.15.18.18.33.22a4.51,4.51,0,0,0,1.65-1.1C50.76,278.29,51,278.33,51.16,278.11Zm-2.38.11s0,0,0-.05a.3.3,0,0,0-.2-.06.12.12,0,0,0,0,.12.14.14,0,0,0,.08.1C48.71,278.33,48.74,278.33,48.78,278.22Zm-.33.15h0c0-.11-.18-.11-.18,0a0,0,0,0,0,0,0,.11.11,0,0,0,.13.05c.08,0,0-.08,0-.11Zm1.1,1.39c-.19.18-.7.07-.59.43h0c.48.25.77-.3,1.14-.48.08-.18.1-.28.08-.32S49.71,279.67,49.55,279.76Z" transform="translate(-35.79 -222.47)"/><path class="cls-6" d="M57.83,276.91,57,275c-.08,0-.19-.09-.19-.19-.55-1.39-1.17-2.74-1.79-4.09a.34.34,0,0,0-.44,0c-.11.26-.33.11-.48.18l-1,.55c-1.14.29-2.93,0-3.33,1.58l0,0a1.93,1.93,0,0,0-1.54-.22c-1,.37-1.49,1.38-2.47,1.72a2.88,2.88,0,0,1-.53.34,6,6,0,0,1-1,.4c-.67.27.21,1,1.06,2.65a11.13,11.13,0,0,1,.82,1.81,22,22,0,0,0,1.79,3.84c.37.58.74-.18,1.1-.18a20.9,20.9,0,0,1,6.92-3.37,3.29,3.29,0,0,0,.87-.23h0a7.21,7.21,0,0,0,1.24-.4C58.82,279.11,58.21,278,57.83,276.91Zm-.82-.52-.07,0-.51-1.28A5.38,5.38,0,0,1,57,276.39Zm-2.3-5.08a15.5,15.5,0,0,1,1.2,2.67,12.79,12.79,0,0,1-1.24-2.64Zm-4.61,2.34a1.67,1.67,0,0,1,.8-1.39c.84-.3,2,.14,2.67-.48h.15c1,2,1.94,4,2.82,6-.55,1.39-2.42.44-3.33,1.32-.15.11-.3.29-.48.26-.4-.88-.91-1.72-1.24-2.64m-4.69-2.23c.7-.77,2.16-2,3-.59.88,1.87,1.79,3.74,2.56,5.64-.18.29-.59,0-.84.18a3.61,3.61,0,0,0-2.31,1.68c-.11,0-.25.19-.36.08-1-2.12-2-4.21-2.82-6.41C46.11,274.78,46.55,274.75,46.8,274.49Zm-1.2.88L46,276l2.67,5.86c.19.25.48,0,.7,0,.73-.51,1.35-1.61,2.38-1.61-1,.4-1.76,1.68-2.86,2.09-.29.14-.47-.26-.55-.44-.84-2.13-1.9-4.25-2.74-6.41Zm2.59,7.68c-.51-.33-.47-1-.76-1.5-1-1.9-1.72-3.84-2.57-5.78,0-.18.22-.29.33-.15,1.06,2.24,2.05,4.54,3,6.81.3.29.7.11,1,.07,1-.44,1.72-1.68,2.82-1.9C50.72,281.37,49.88,282.87,48.19,283.05Zm5-2.56a1.05,1.05,0,0,1-.55.22.53.53,0,0,0-.51-.15c.11,0,.15-.11.15-.18s-.22-.15-.3-.26c.33-.18,1,.44,1.14-.22C53.1,280.09,53.35,280.31,53.17,280.49Zm3.95-1.76c-.55,1.06-1.79,1-2.89,1,.81-.33,1.87.07,2.45-.77,0-.07-.07-.11-.11-.15-1,.55-2.3.26-3.33.84.11-.32.59-.4.88-.58.48-.11,1,.11,1.5,0A1.43,1.43,0,0,0,56.87,278l-.08-.4c-.95-1.94-1.79-4-2.67-5.93l0-.22.11,0c.95,2.19,2,4.32,2.85,6.51C57.3,278.35,57.36,278.56,57.12,278.73Z" transform="translate(-35.79 -222.47)"/><path class="cls-7" d="M130.32,272.42a1.25,1.25,0,1,0,1.25,1.24A1.24,1.24,0,0,0,130.32,272.42Zm0,2.05a.81.81,0,1,1,.81-.81A.81.81,0,0,1,130.32,274.47Zm0,3.86a1.25,1.25,0,1,0,1.25,1.25A1.25,1.25,0,0,0,130.32,278.33Zm0,2.06a.81.81,0,1,1,.81-.81A.81.81,0,0,1,130.32,280.39Zm-3-5a1.25,1.25,0,1,0,1.25,1.24A1.24,1.24,0,0,0,127.36,275.38Zm0,2.05a.81.81,0,1,1,.81-.81A.81.81,0,0,1,127.36,277.43Zm5.92-2.05a1.25,1.25,0,1,0,1.24,1.24A1.24,1.24,0,0,0,133.28,275.38Zm0,2.05a.81.81,0,1,1,.81-.81A.81.81,0,0,1,133.28,277.43Zm-3-2.05a1.25,1.25,0,1,0,1.25,1.24A1.24,1.24,0,0,0,130.32,275.38Zm0,2.05a.81.81,0,1,1,.81-.81A.81.81,0,0,1,130.32,277.43Z" transform="translate(-35.79 -222.47)"/><path class="cls-6" d="M134.81,280.89c-.13-.22-.19-.38-.05-.56l.37-.49c.14-.19.35-.16.55-.1l.37.07a6.86,6.86,0,0,0,.43-1l-.3-.23c-.22-.14-.33-.26-.28-.49l.13-.6c.05-.22.25-.28.46-.32l.36-.09c0-.16,0-.33,0-.5s0-.39,0-.58l-.38-.08c-.26,0-.41-.1-.46-.32l-.13-.6c0-.22.11-.37.28-.49l.29-.23a5.62,5.62,0,0,0-.5-1.05l-.37.09c-.25.08-.42.09-.56-.09l-.38-.49c-.14-.18-.06-.37,0-.56l.17-.33a6.83,6.83,0,0,0-.89-.72l-.3.24c-.19.17-.33.26-.54.15l-.55-.27c-.2-.1-.21-.31-.2-.52v-.37a6.17,6.17,0,0,0-1.22-.27l-.15.33c-.09.24-.19.38-.42.38H130c-.23,0-.34-.19-.42-.39l-.14-.32a6.67,6.67,0,0,0-1.43.37l0,.35c0,.26,0,.43-.19.53l-.54.29c-.2.11-.38,0-.55-.14l-.27-.2a6.84,6.84,0,0,0-1,.92l.18.29c.14.22.2.37.07.56l-.35.51c-.13.19-.34.17-.55.12l-.32-.05a6,6,0,0,0-.46,1.18l.28.19c.23.12.35.24.32.46l-.09.61c0,.23-.23.3-.44.36l-.32.09v.05a6.38,6.38,0,0,0,.1,1.08l.33.05c.26,0,.41.07.48.29l.18.59c.07.21-.08.37-.24.5l-.25.22a6.78,6.78,0,0,0,.53.95l.33-.09c.24-.1.41-.12.56.05l.41.46c.15.17.08.38,0,.57l-.13.3a6.06,6.06,0,0,0,.81.6l.26-.22c.18-.19.33-.27.53-.18l.57.25c.2.1.22.31.22.52v.34a6.72,6.72,0,0,0,1,.22l.15-.32c.09-.24.18-.38.41-.38h.62c.23,0,.33.19.41.38l.15.32a7,7,0,0,0,1.38-.34l0-.36c0-.26,0-.43.19-.53l.54-.29c.21-.11.39,0,.55.14l.29.22a6.81,6.81,0,0,0,.87-.74Zm-4.49.32a4.59,4.59,0,1,1,4.59-4.59A4.58,4.58,0,0,1,130.32,281.21Z" transform="translate(-35.79 -222.47)"/><path class="cls-7" d="M58.93,264.86l-7.44-3L53,258.24l1.13.46-.75,1.84,1.67.68.73-1.81,1.1.45-.73,1.8,3.54,1.44Z" transform="translate(-35.79 -222.47)"/><path class="cls-7" d="M60.54,261l-7-3.93.92-1.64,5.94,3.34,1-1.77,1.06.59Z" transform="translate(-35.79 -222.47)"/><path class="cls-7" d="M58.66,251.94a.59.59,0,0,1-.26-.36.48.48,0,0,1,.12-.38.45.45,0,0,1,.33-.2.75.75,0,0,1,.47.21L63,254a.72.72,0,0,1,.31.4.45.45,0,0,1-.11.37.47.47,0,0,1-.33.21.69.69,0,0,1-.44-.18Zm.92-2.59a1.66,1.66,0,0,0-1,.16,3.19,3.19,0,0,0-1,1,2.74,2.74,0,0,0-.58,1.28,1.8,1.8,0,0,0,.21,1.16,2.52,2.52,0,0,0,.73.79L61,256.12a3,3,0,0,0,.61.38,2,2,0,0,0,.78.15,1.89,1.89,0,0,0,.92-.28,3,3,0,0,0,.84-.78,2.87,2.87,0,0,0,.61-1.3,1.78,1.78,0,0,0-.17-1.1,2.81,2.81,0,0,0-.75-.87L60.79,250A2.9,2.9,0,0,0,59.58,249.35Z" transform="translate(-35.79 -222.47)"/><path class="cls-7" d="M62.35,246.92l.25-.23a.53.53,0,0,1,.46-.17,1.28,1.28,0,0,1,.65.43,1.78,1.78,0,0,1,.48.72.55.55,0,0,1-.2.56l-.2.19Zm4.78,5-2.54-2.65.17-.16a.9.9,0,0,1,.4-.21.63.63,0,0,1,.4.09,3.54,3.54,0,0,1,.63.56l.84.87a2.26,2.26,0,0,0,1,.68l1.41-1.35a1.53,1.53,0,0,1-.51-.21,3.23,3.23,0,0,1-.53-.46l-1.13-1.17a1.55,1.55,0,0,0-1-.57,1.49,1.49,0,0,0-1,.5l0,0a1.84,1.84,0,0,0,.42-1,2,2,0,0,0-.62-1.3,1.8,1.8,0,0,0-1.33-.62,2.36,2.36,0,0,0-1.53.79l-1.86,1.79,5.56,5.79Z" transform="translate(-35.79 -222.47)"/><path class="cls-7" d="M69.64,249.62l-4.88-6.38,1.49-1.14,4.88,6.39Z" transform="translate(-35.79 -222.47)"/><path class="cls-7" d="M69.86,241.12a.6.6,0,0,1,.54-.09,1,1,0,0,1,.49.49l2,3.36a1.09,1.09,0,0,1,.2.73.55.55,0,0,1-.31.38l-.25.15-2.92-4.88Zm3.8,5.73a2.8,2.8,0,0,0,.81-.73,1.76,1.76,0,0,0,.36-1.06,2.23,2.23,0,0,0-.36-1.2l-1.93-3.24a3.52,3.52,0,0,0-.58-.73,1.72,1.72,0,0,0-.37-.25,1.6,1.6,0,0,0-.59-.14,1.71,1.71,0,0,0-.66.08,3.66,3.66,0,0,0-.8.37l-2.15,1.29,4.12,6.9Z" transform="translate(-35.79 -222.47)"/><path class="cls-7" d="M76.54,241.76l-.9-3.45,1.59,3.17Zm.32,1.26,1-.38.93,1.75,1.73-.7-4-7.05-2.38,1,1.74,8,1.46-.59Z" transform="translate(-35.79 -222.47)"/><path class="cls-7" d="M96.15,234.78,94,242.31l1.16.18.56-2.31.75.12-.19,2.36,1.37.21.38-7.8Zm.39,4.56-.55-.09.86-3.44Z" transform="translate(-35.79 -222.47)"/><path class="cls-7" d="M102.68,238.73l-1.34-.37.22-.81a.52.52,0,0,0,0-.37.35.35,0,0,0-.23-.18.41.41,0,0,0-.31,0,.51.51,0,0,0-.16.29l-1.11,4.16a1.05,1.05,0,0,0,0,.38c0,.09.12.14.24.17a.32.32,0,0,0,.27,0,.37.37,0,0,0,.16-.24l.4-1.27-.49-.14.25-.89,1.84.51-1.08,3.9-.79-.21v-.32a1.43,1.43,0,0,1-.59.2,2,2,0,0,1-.68-.06,1.47,1.47,0,0,1-.91-.66,1.76,1.76,0,0,1,0-1.36l1.2-4.56a3.1,3.1,0,0,1,.27-.67,1.31,1.31,0,0,1,.39-.42,1.45,1.45,0,0,1,.54-.23,1.62,1.62,0,0,1,.45,0,2.55,2.55,0,0,1,.56.1,2.13,2.13,0,0,1,.93.47,1.24,1.24,0,0,1,.38.67,4.66,4.66,0,0,1-.17,1.22Z" transform="translate(-35.79 -222.47)"/><path class="cls-7" d="M107.43,238a1.78,1.78,0,0,0-1-.79l-1.78-.73-3,7.52,1.29.52,1.42-3.61.16.07a.6.6,0,0,1,.27.21.43.43,0,0,1,.06.29,3.37,3.37,0,0,1-.19.6L104,244a1.85,1.85,0,0,0-.17.85l1.34.55a1.08,1.08,0,0,1,0-.4,2.24,2.24,0,0,1,.15-.5l.85-2.22a1.09,1.09,0,0,0,.07-.87,1.07,1.07,0,0,0-.64-.54v0a1.33,1.33,0,0,0,.83,0,5.47,5.47,0,0,0,1-1.71A1.38,1.38,0,0,0,107.43,238Zm-1.41.72a11.85,11.85,0,0,1-.65,1.44.42.42,0,0,1-.45,0l-.19-.08.9-2.33.23.09a.46.46,0,0,1,.26.27A1,1,0,0,1,106,238.71Z" transform="translate(-35.79 -222.47)"/><path class="cls-7" d="M105.34,245.55l3.72-7.21,1.23.63-3.72,7.21Z" transform="translate(-35.79 -222.47)"/><path class="cls-7" d="M112.35,244.41l-1.18-.74.88-1.57a1.17,1.17,0,0,0,.19-.41.37.37,0,0,0-.45-.36.65.65,0,0,0-.3.3l-2.64,4.18a.47.47,0,0,0-.09.34.36.36,0,0,0,.18.24.29.29,0,0,0,.25.05.51.51,0,0,0,.25-.24l1.06-1.56,1.19.74-1,1.58a1.54,1.54,0,0,1-1,.78,2,2,0,0,1-1.33-.35,1.8,1.8,0,0,1-.9-1.15,1.93,1.93,0,0,1,.39-1.33l2.43-3.86a2.66,2.66,0,0,1,.53-.63,1.41,1.41,0,0,1,.56-.28,1.51,1.51,0,0,1,.56,0,2.37,2.37,0,0,1,.85.37,2.09,2.09,0,0,1,.76.7,1.14,1.14,0,0,1,.16.73,2.09,2.09,0,0,1-.27.73Z" transform="translate(-35.79 -222.47)"/><path class="cls-7" d="M115.16,242.19l1.07.86-3.83,4.87a.76.76,0,0,0-.22.42.31.31,0,0,0,.14.25.32.32,0,0,0,.29.08.89.89,0,0,0,.37-.31l3.82-4.86,1.09.87-4,5a2.1,2.1,0,0,1-.8.67,1.3,1.3,0,0,1-.78.06,2.14,2.14,0,0,1-.86-.46,2.1,2.1,0,0,1-.68-.83,1.27,1.27,0,0,1-.08-.78,2.18,2.18,0,0,1,.45-.82Z" transform="translate(-35.79 -222.47)"/><path class="cls-7" d="M113.27,250.89l5.65-5.68,1,1-4.7,4.69,1.08,1.06-1,1Z" transform="translate(-35.79 -222.47)"/><path class="cls-7" d="M120.66,248.77l1.06-.84,2.12,2.56-1.07.85-.61-.73L117,254.92l-.9-1.08,5.17-4.32Z" transform="translate(-35.79 -222.47)"/><path class="cls-7" d="M124.65,251.41l.75,1.15L120,256.14a.88.88,0,0,0-.34.33.3.3,0,0,0,.06.28.32.32,0,0,0,.25.17.82.82,0,0,0,.45-.18l5.4-3.57.76,1.16L121,258a2,2,0,0,1-1,.39,1.26,1.26,0,0,1-.76-.18,2.33,2.33,0,0,1-.68-.71,2.19,2.19,0,0,1-.38-1,1.28,1.28,0,0,1,.17-.77,2.21,2.21,0,0,1,.68-.63Z" transform="translate(-35.79 -222.47)"/><path class="cls-7" d="M122.93,266.38l7.8-1.82.32,1.35-6.47,1.48.35,1.47-1.34.34Z" transform="translate(-35.79 -222.47)"/><path class="cls-7" d="M56.87,284.25l.55,1.85-5.05,2.17,5.38-1.08.54,1.8-8.12,2.6-.33-1.1,6-1.85L49.6,289.7l-.33-1.11L55.06,286l-6,1.84-.3-1Z" transform="translate(-35.79 -222.47)"/><path class="cls-7" d="M50.81,293.08l7.48-3.52,1.11,2.5-1.12.69-.57-1.27-1.93.65.55,1.24-1.18.57-.55-1.24-2,1L53.2,295l-1.28.62Z" transform="translate(-35.79 -222.47)"/><path class="cls-7" d="M59.13,296.65l-.66-1.15.57-.33a5.27,5.27,0,0,0,.65-.4.32.32,0,0,0,0-.34.28.28,0,0,0-.22-.16.6.6,0,0,0-.38.11l-4.51,2.76a.41.41,0,0,0-.23.24.34.34,0,0,0,0,.29.3.3,0,0,0,.2.15.46.46,0,0,0,.31-.08l1.51-.94.67,1.15L55.39,299a1.46,1.46,0,0,1-1.22.2,1.87,1.87,0,0,1-1-.89A1.7,1.7,0,0,1,53,297a1.83,1.83,0,0,1,.92-.95l4.5-2.8a2.31,2.31,0,0,1,.72-.29,1.16,1.16,0,0,1,.59,0,1.23,1.23,0,0,1,.48.25,2.32,2.32,0,0,1,.55.68,2.11,2.11,0,0,1,.32.93,1.05,1.05,0,0,1-.2.68,5.69,5.69,0,0,1-1.1.81Z" transform="translate(-35.79 -222.47)"/><path class="cls-7" d="M55.06,301l6.73-4.91.78,1.06-2.68,1.86.4.53L63,297.72l.79,1.07L57,303.69l-.79-1.06,3-2.27-.38-.52-3,2.27Z" transform="translate(-35.79 -222.47)"/><path class="cls-7" d="M64.54,299.82l-6.58,5,.76.81,1.3-.94.49.53-1.06,1.2.89,1,5.43-6.24Zm-3.21,4.51L61,304,64.45,301Z" transform="translate(-35.79 -222.47)"/><path class="cls-7" d="M66.56,302.13l1.4,1.18-3.54,5.62,4.19-5.06.79.67-5.19,6.24-1.3-1.1,3.25-5.74-4,5.1-.79-.67Z" transform="translate(-35.79 -222.47)"/><path class="cls-7" d="M65.35,311.6,70,304.88l1.08.75-4.67,6.73Z" transform="translate(-35.79 -222.47)"/><path class="cls-7" d="M73.27,310.05l-1.15-.66.5-.85a1.29,1.29,0,0,0,.17-.39.31.31,0,0,0-.18-.29.3.3,0,0,0-.27,0,.64.64,0,0,0-.27.29l-2.54,4.27a.5.5,0,0,0-.08.33.37.37,0,0,0,.18.23.28.28,0,0,0,.25,0,.5.5,0,0,0,.23-.23l.83-1.35,1.15.67-.92,1.56a1.45,1.45,0,0,1-1,.77,1.81,1.81,0,0,1-1.27-.29,1.72,1.72,0,0,1-.89-1.05,1.81,1.81,0,0,1,.33-1.28L71,307.38a2.4,2.4,0,0,1,.48-.61,1.21,1.21,0,0,1,.52-.28,1.23,1.23,0,0,1,.54,0,2.47,2.47,0,0,1,.82.31,2,2,0,0,1,.73.65,1.09,1.09,0,0,1,.18.69,1.82,1.82,0,0,1-.23.69Z" transform="translate(-35.79 -222.47)"/><path class="cls-7" d="M75.93,308.27l-4.13,7.22,1,.44,1-1.73.66.29-.66,1.87,1.2.53L77.59,309Zm-1,5.05-.48-.21L76,310.42Z" transform="translate(-35.79 -222.47)"/><path class="cls-7" d="M76.33,317.36l2.44-7.78L80,310,78,316.5l1.37.43L79,318.19Z" transform="translate(-35.79 -222.47)"/><path class="cls-7" d="M102.62,309.53l1.19-.51,2.41,5.8a.74.74,0,0,0,.25.37.36.36,0,0,0,.47-.21.75.75,0,0,0-.1-.45l-2.4-5.78,1.22-.53,2.58,6a2.1,2.1,0,0,1,.2,1,1.27,1.27,0,0,1-.29.67,2.08,2.08,0,0,1-.78.52,1.92,1.92,0,0,1-1,.2,1.21,1.21,0,0,1-.69-.28,2.21,2.21,0,0,1-.49-.74Z" transform="translate(-35.79 -222.47)"/><path class="cls-7" d="M106.24,308l1.58-.92,3.38,4.29-2.64-4.72.9-.52,4,6.94-1.47.86-3.78-4.72,2.92,5.21-.89.52Z" transform="translate(-35.79 -222.47)"/><path class="cls-7" d="M114.61,312.25l-4.69-6.54L111,305l4.69,6.54Z" transform="translate(-35.79 -222.47)"/><path class="cls-7" d="M111.74,304.42l1.08-.92,3.81,4.2-3.12-4.79.93-.78,4.3,6.91-1.32,1.12Z" transform="translate(-35.79 -222.47)"/><path class="cls-7" d="M120.46,307.46,114.75,302l1.88-2,.82.8-1,1,1.56,1.4.94-1,.77.78-.94,1,1.67,1.7,1-1,.88.77Z" transform="translate(-35.79 -222.47)"/><path class="cls-7" d="M121.57,300.85a.42.42,0,0,1,.29,0c.1,0,1.08.79,1.31,1l.67.52a1.75,1.75,0,0,0,.73.38l.85-1.09a1.24,1.24,0,0,1-.38-.09,2.56,2.56,0,0,1-.41-.27l-1.89-1.49a1.06,1.06,0,0,0-.78-.28,1,1,0,0,0-.66.45l0,0a1.34,1.34,0,0,0,.18-.77c0-.3-1.13-1.26-1.46-1.51a1.26,1.26,0,0,0-1-.31,1.67,1.67,0,0,0-1,.71l-1.12,1.44,6.35,4.93.81-1.05-2.86-2.22.1-.13A.61.61,0,0,1,121.57,300.85Zm-1-.47-.12.15-2-1.57.14-.19a.4.4,0,0,1,.31-.17.9.9,0,0,1,.49.24,12.17,12.17,0,0,1,1.31,1.12A.4.4,0,0,1,120.53,300.38Z" transform="translate(-35.79 -222.47)"/><path class="cls-7" d="M128.56,296.38l-7-3.46.58-1.18,7,3.46Z" transform="translate(-35.79 -222.47)"/><path class="cls-7" d="M123.61,291.61l-1.28-.46,1.15-2.94,1.29.46-.33.84,6.11,2.36-.48,1.24L124,290.74Z" transform="translate(-35.79 -222.47)"/><path class="cls-7" d="M123.73,287.76l.35-1.33,3.06.3-2.81-1.24.31-1.16,4,2.19,3.35.85-.34,1.29-3.37-.86Z" transform="translate(-35.79 -222.47)"/><path class="cls-7" d="M128,257.2l-.86-1.72-7.18,3.7.62,1.24,3.45-1.77.08.15a.63.63,0,0,1,.06.34.44.44,0,0,1-.15.26,2.43,2.43,0,0,1-.53.32l-1.83,1a1.88,1.88,0,0,0-.69.52l.65,1.3a1.1,1.1,0,0,1,.26-.31,2.25,2.25,0,0,1,.44-.28l2.1-1.1a1.14,1.14,0,0,0,.63-.61,1.07,1.07,0,0,0-.12-.83h0a1.37,1.37,0,0,0,.65.52,5.28,5.28,0,0,0,1.88-.63,1.28,1.28,0,0,0,.74-.8A1.73,1.73,0,0,0,128,257.2Zm-.86.5a.87.87,0,0,1-.45.36,11,11,0,0,1-1.45.66.43.43,0,0,1-.35-.27l-.09-.18,2.21-1.16.11.22A.41.41,0,0,1,127.16,257.7Z" transform="translate(-35.79 -222.47)"/><path class="cls-7" d="M129.39,261.31l-7.73,1.27.34,1.12,2.32-.48.21.73-2.21.84.39,1.32,7.22-3Zm-4,2.29-.15-.53,3.48-.69Z" transform="translate(-35.79 -222.47)"/><path class="cls-7" d="M123.57,295.12l-.64,1.15-1.07-.61a1,1,0,0,0-.42-.16.33.33,0,0,0-.26.17.32.32,0,0,0,0,.3.58.58,0,0,0,.3.27l.22.13a.8.8,0,0,0,.42.11c.2,0,.82-.08,1.85-.23a5.8,5.8,0,0,1,1.16-.07,2.53,2.53,0,0,1,1.05.4,4.34,4.34,0,0,1,1.14.84,1.52,1.52,0,0,1,.38.88,1.66,1.66,0,0,1-.23,1,1.84,1.84,0,0,1-.56.61,1.33,1.33,0,0,1-.72.22,1.67,1.67,0,0,1-.57-.1,3.55,3.55,0,0,1-.63-.28l-1.27-.72.65-1.15,1.28.72a.69.69,0,0,0,.41.13.27.27,0,0,0,.24-.15.29.29,0,0,0,0-.3,1.31,1.31,0,0,0-.46-.36l-.21-.11a.94.94,0,0,0-.3-.12,3.38,3.38,0,0,0-.78,0l-1.51.22a3.68,3.68,0,0,1-1.06,0,2.87,2.87,0,0,1-.82-.35,3.32,3.32,0,0,1-1-.75,1.58,1.58,0,0,1-.35-.83,1.74,1.74,0,0,1,.27-1,1.49,1.49,0,0,1,1-.83,1.92,1.92,0,0,1,1.3.28Z" transform="translate(-35.79 -222.47)"/><path class="cls-7" d="M83.57,257.94H82.7v-5.79h.87v2.21h1.66v-2.21h.88v5.79h-.88v-2.58H83.57Z" transform="translate(-35.79 -222.47)"/><path class="cls-7" d="M90.08,252.15v1H87.84v1.23h2v1h-2v1.49h2.34v1H87v-5.79Zm-1.53,0" transform="translate(-35.79 -222.47)"/><path class="cls-7" d="M93.1,255.75H92l.55-2.28Zm-1.61,2.19.29-1.19h1.57l.26,1.19h1l-1.49-5.79h-1l-1.51,5.79Zm1.08-5.79" transform="translate(-35.79 -222.47)"/><path class="cls-7" d="M97.59,253.63a3.72,3.72,0,0,1,.2,1.36,3.63,3.63,0,0,1-.14,1.1c-.16.57-.45.85-.87.85H96v-3.78h.81A.79.79,0,0,1,97.59,253.63Zm-2.48-1.48v5.79h1.82a1.51,1.51,0,0,0,1.42-1.08,5.1,5.1,0,0,0,.34-2,6.41,6.41,0,0,0-.08-1,3.23,3.23,0,0,0-.3-.94,1.59,1.59,0,0,0-.72-.73,1.8,1.8,0,0,0-.66-.13Z" transform="translate(-35.79 -222.47)"/><path class="cls-7" d="M61.29,279.58h-.67v-5.29h.67v2h1.27v-2h.67v5.29h-.67v-2.36H61.29Z" transform="translate(-35.79 -222.47)"/><path class="cls-7" d="M66.28,274.29v.94H64.56v1.12h1.57v.92H64.56v1.36h1.79v.95H63.89v-5.29Zm-1.18,0" transform="translate(-35.79 -222.47)"/><path class="cls-7" d="M68.59,277.58h-.82l.42-2.08Zm-1.23,2,.23-1.08h1.19l.21,1.08h.73l-1.14-5.29h-.77l-1.16,5.29Zm.83-5.29" transform="translate(-35.79 -222.47)"/><path class="cls-7" d="M71.93,275.3a.84.84,0,0,1,.2.65.73.73,0,0,1-.2.6.67.67,0,0,1-.35.08h-.77v-1.42h.79A.5.5,0,0,1,71.93,275.3Zm-1.78-1v5.29h.66v-2.07h.7a.46.46,0,0,1,.41.17,1.38,1.38,0,0,1,.12.67v.49a3.44,3.44,0,0,0,0,.46c0,.07,0,.17,0,.28h.75v-.13a.47.47,0,0,1-.13-.3c0-.09,0-.25,0-.49v-.36a2.52,2.52,0,0,0-.1-.83.73.73,0,0,0-.32-.41.89.89,0,0,0,.39-.52,2.42,2.42,0,0,0,.12-.76,2.29,2.29,0,0,0-.06-.54,2.52,2.52,0,0,0-.17-.44.85.85,0,0,0-.84-.51Z" transform="translate(-35.79 -222.47)"/><path class="cls-7" d="M73.12,274.29h2.63v.94h-1v4.35h-.69v-4.35h-1Z" transform="translate(-35.79 -222.47)"/><path class="cls-7" d="M106.31,279.85h-.81V274h.81v2.22h1.52V274h.81v5.81h-.81v-2.59h-1.52Z" transform="translate(-35.79 -222.47)"/><path class="cls-7" d="M111.46,277.65h-1l.5-2.28Zm-1.48,2.2.27-1.2h1.44l.24,1.2h.89L111.44,274h-.92l-1.38,5.81Zm1-5.81" transform="translate(-35.79 -222.47)"/><path class="cls-7" d="M113.3,279.85V274h.85l1.54,4v-4h.76v5.81h-.81l-1.59-4.13v4.13Zm1.6-5.82" transform="translate(-35.79 -222.47)"/><path class="cls-7" d="M119.48,275.52a3.77,3.77,0,0,1,.19,1.37,4.46,4.46,0,0,1-.12,1.1c-.15.57-.42.85-.81.85H118v-3.79h.75A.72.72,0,0,1,119.48,275.52ZM117.21,274v5.81h1.67c.59,0,1-.36,1.31-1.08a5.71,5.71,0,0,0,.3-2,6.58,6.58,0,0,0-.07-1,3.21,3.21,0,0,0-.28-.94,1.4,1.4,0,0,0-.66-.73,1.48,1.48,0,0,0-.6-.13Z" transform="translate(-35.79 -222.47)"/><path class="cls-7" d="M82.78,303.79v-5.93h2.91v1h-2v1.37h1.79v1H83.64v2.49Z" transform="translate(-35.79 -222.47)"/><path class="cls-7" d="M87.05,297.85v5.94H86.2v-5.94Zm-.42-.11" transform="translate(-35.79 -222.47)"/><path class="cls-7" d="M89.4,297.85m-1.53,0v5.94H91v-1.07H88.71v-1.53h2v-1h-2V298.9h2.17v-1Z" transform="translate(-35.79 -222.47)"/><path class="cls-7" d="M91.65,303.79v-5.94h.86v4.87h2v1.07Z" transform="translate(-35.79 -222.47)"/><path class="cls-7" d="M97.53,299.37a3.65,3.65,0,0,1,.2,1.39,4.18,4.18,0,0,1-.13,1.13c-.16.58-.44.87-.85.87H96v-3.88h.79A.77.77,0,0,1,97.53,299.37Zm-2.4-1.52v5.94H96.9a1.46,1.46,0,0,0,1.37-1.11,5.4,5.4,0,0,0,.33-2,6.94,6.94,0,0,0-.08-1,3.45,3.45,0,0,0-.29-1,1.56,1.56,0,0,0-.7-.75,1.63,1.63,0,0,0-.63-.13Z" transform="translate(-35.79 -222.47)"/><path class="cls-4" d="M281.45,288.24c4.18-3.13,9.52-4.67,15.48-4.67a45.74,45.74,0,0,1,10.15,1.32,4.75,4.75,0,0,0,1.61.22c.05,1.26.34,4.73.8,8.09a1.26,1.26,0,0,1-1.55.11c-.86-3.75-3.44-8-11.76-8-8.77,0-16.22,5.34-16.22,16.73,0,11.55,7.62,17.94,17,17.94,7.39,0,10.66-4.62,12-7.87a1.23,1.23,0,0,1,1.49.22,20.18,20.18,0,0,1-2.75,7.54,11.89,11.89,0,0,0-2,.55,35.16,35.16,0,0,1-9.06,1.26c-5.16,0-10.09-1-14.28-3.68a17.58,17.58,0,0,1-8.14-15.13A18,18,0,0,1,281.45,288.24Z" transform="translate(-35.79 -222.47)"/><path class="cls-4" d="M337.5,309.7c0,6.88-4.93,11.83-12.1,11.83-6.6,0-11.76-4.45-11.76-11.33s5.45-11.89,12.22-11.89C332.28,298.31,337.5,302.94,337.5,309.7ZM325.17,300c-3.79,0-6.6,3.47-6.6,9.52,0,5,2.35,10.4,7.4,10.4s6.6-5.06,6.6-9.3C332.57,305.91,330.62,300,325.17,300Z" transform="translate(-35.79 -222.47)"/><path class="cls-4" d="M347.14,314.6c0,4,.11,4.51,2.18,4.79l1.37.16a.94.94,0,0,1-.11,1.38c-1.89-.11-3.56-.17-5.56-.17s-3.79.06-5.51.17a.94.94,0,0,1-.11-1.38l1.32-.16c2.12-.28,2.17-.83,2.17-4.79V289.73c0-3.25-.05-3.58-1.77-4.57l-.58-.33a.83.83,0,0,1,0-1.1,41.22,41.22,0,0,0,6.2-2.31.63.63,0,0,1,.57.33c-.06,1.65-.17,4.4-.17,6.82Z" transform="translate(-35.79 -222.47)"/><path class="cls-4" d="M361.43,314.6c0,4,.11,4.51,2.18,4.79l1.37.16a.94.94,0,0,1-.11,1.38c-1.89-.11-3.56-.17-5.56-.17s-3.79.06-5.51.17a.94.94,0,0,1-.11-1.38l1.32-.16c2.12-.28,2.17-.83,2.17-4.79V289.73c0-3.25-.05-3.58-1.77-4.57l-.58-.33a.83.83,0,0,1,0-1.1,41.22,41.22,0,0,0,6.2-2.31.62.62,0,0,1,.57.33c-.06,1.65-.17,4.4-.17,6.82Z" transform="translate(-35.79 -222.47)"/><path class="cls-4" d="M372.16,306.68c-1.49,0-1.55.11-1.55,1.48,0,5.56,3.38,10.29,9.52,10.29a6.26,6.26,0,0,0,5.27-2.69.76.76,0,0,1,1,.66c-1.9,3.74-6,5.11-9,5.11a10.45,10.45,0,0,1-8.31-3.63,11.35,11.35,0,0,1-2.41-7.15c0-6.77,4.64-12.44,11.53-12.44,4.93,0,8.14,3.25,8.14,6.55a3.35,3.35,0,0,1-.23,1.43c-.17.33-1,.39-3.38.39Zm3.55-1.65c4.25,0,5.51-.22,6-.55.17-.11.34-.33.34-1.05,0-1.54-1.09-3.47-4.42-3.47s-6.3,3-6.36,4.79c0,.11,0,.28.4.28Z" transform="translate(-35.79 -222.47)"/><path class="cls-4" d="M412.53,300.29c.63.28.51,2.15-.35,2.26h-4.13a22,22,0,0,1,.12,2.81c0,3.79-2.35,8.74-9.63,8.74-1,0-1.84-.1-2.53-.16-.68.39-2.52,1.43-2.52,3,0,1.26,1.32,2.31,4,2.31,1.95,0,4.3-.17,6.83-.17,3.21,0,8,.55,8,6.05,0,6-6.83,10.4-14.28,10.4-7.06,0-9.52-3.63-9.52-6.38a3,3,0,0,1,.63-2c1-1,2.58-2.43,3.9-3.69.51-.5,1-1,.46-1.32-2.24-.55-4.19-2.42-4.19-4.35,0-.27.23-.49.86-.93a17.49,17.49,0,0,0,3-2.53,2.12,2.12,0,0,0,.57-1.05,7.46,7.46,0,0,1-4.3-6.66c0-4.73,4.25-8.31,9.35-8.31a14.76,14.76,0,0,1,5.5,1.1,7.12,7.12,0,0,0,3.5.88Zm-12,22.23c-1.83,0-4.13.11-4.93.61a5.6,5.6,0,0,0-2.75,4.62c0,3,2.47,5.45,7.68,5.45s8.49-2.75,8.49-5.89c0-3.36-2.41-4.79-6.54-4.79Zm3.56-15.73c0-3.74-1.61-6.88-5.1-6.88-2.76,0-4.82,2.42-4.82,6.16,0,3.91,2.46,6.44,5.22,6.44C402.49,312.51,404.1,310.14,404.1,306.79Z" transform="translate(-35.79 -222.47)"/><path class="cls-4" d="M419.28,306.68c-1.49,0-1.55.11-1.55,1.48,0,5.56,3.38,10.29,9.52,10.29a6.26,6.26,0,0,0,5.27-2.69.76.76,0,0,1,1,.66c-1.89,3.74-6,5.11-9,5.11a10.45,10.45,0,0,1-8.31-3.63,11.35,11.35,0,0,1-2.41-7.15c0-6.77,4.65-12.44,11.53-12.44,4.93,0,8.14,3.25,8.14,6.55a3.35,3.35,0,0,1-.23,1.43c-.17.33-1,.39-3.38.39Zm3.55-1.65c4.25,0,5.51-.22,6-.55.17-.11.34-.33.34-1.05,0-1.54-1.09-3.47-4.41-3.47s-6.31,3-6.37,4.79c0,.11,0,.28.4.28Z" transform="translate(-35.79 -222.47)"/><path class="cls-4" d="M474.73,309.7c0,6.88-4.93,11.83-12.1,11.83-6.59,0-11.75-4.45-11.75-11.33s5.44-11.89,12.21-11.89C469.51,298.31,474.73,302.94,474.73,309.7ZM462.4,300c-3.78,0-6.59,3.47-6.59,9.52,0,5,2.35,10.4,7.4,10.4s6.59-5.06,6.59-9.3C469.8,305.91,467.85,300,462.4,300Z" transform="translate(-35.79 -222.47)"/><path class="cls-4" d="M485.71,301.39c-1,0-1,.11-1,1.6V314.6c0,4,.12,4.62,2.18,4.79l2.07.16a.94.94,0,0,1-.12,1.38c-2.58-.11-4.24-.17-6.25-.17s-3.78.06-5.5.17a.94.94,0,0,1-.12-1.38l1.32-.16c2.12-.28,2.18-.83,2.18-4.79V303c0-1.49,0-1.6-1.15-1.6h-2a.74.74,0,0,1-.17-1l2.46-1.16a1.25,1.25,0,0,0,.86-1.1,23.7,23.7,0,0,1,1.78-9.68,11.23,11.23,0,0,1,10.32-7c3,0,5.62,1.32,5.62,3.3a2.16,2.16,0,0,1-2.18,2,1.68,1.68,0,0,1-1.38-.66,6.46,6.46,0,0,0-4.58-2.42,4.4,4.4,0,0,0-4.07,3c-1,2.53-1.27,6.55-1.27,9.3v1.59c0,1.49,0,1.54,1,1.54h6.54a1.66,1.66,0,0,1-.41,2.31Z" transform="translate(-35.79 -222.47)"/><path class="cls-4" d="M513.35,292.7c0-5.72-.11-6.55-3.5-6.93l-.92-.11c-.34-.22-.22-1.21.12-1.38,2.46.11,4.41.17,6.77.17H526.6c3.67,0,7,0,7.74-.17a58.87,58.87,0,0,1,.91,7.32,1.16,1.16,0,0,1-1.43.11c-.86-2.59-1.38-4.51-4.36-5.23a28.89,28.89,0,0,0-5.56-.33h-4.13c-1.72,0-1.72.11-1.72,2.2v11c0,1.54.17,1.54,1.89,1.54h3.33a22,22,0,0,0,4.87-.33c.69-.22,1.09-.55,1.38-1.93l.46-2.25a1.17,1.17,0,0,1,1.49.05c0,1.32-.23,3.47-.23,5.56s.23,4.07.23,5.28a1.16,1.16,0,0,1-1.49.06l-.52-2.15a2.38,2.38,0,0,0-1.77-2.09,20.15,20.15,0,0,0-4.42-.27h-3.33c-1.72,0-1.89.05-1.89,1.48v7.76c0,2.92.17,4.79,1.09,5.72.69.66,1.89,1.27,6.94,1.27,4.42,0,6.08-.22,7.34-.83,1-.55,2.58-2.47,4.07-5.34a1.07,1.07,0,0,1,1.43.39,46.06,46.06,0,0,1-2.58,7.65c-5.16-.11-10.26-.17-15.36-.17h-5.16c-2.47,0-4.42.06-7.8.17a1,1,0,0,1-.12-1.38l1.89-.16c3.27-.28,3.56-1.1,3.56-6.88Z" transform="translate(-35.79 -222.47)"/><path class="cls-4" d="M544.52,305c0-2.14,0-2.42-1.54-3.41l-.52-.33a.73.73,0,0,1,.06-1,31.53,31.53,0,0,0,5.73-2.7.66.66,0,0,1,.63.39c-.11,1.26-.11,2.09-.11,2.58a.59.59,0,0,0,.63.61c2.41-1.43,5.1-2.81,8-2.81,4.76,0,6.7,3.14,6.7,6.83v9.46c0,4,.12,4.51,2.18,4.79l1.27.16a.94.94,0,0,1-.12,1.38c-1.72-.11-3.38-.17-5.39-.17s-3.78.06-5.33.17a.94.94,0,0,1-.12-1.38l1.09-.16c2.12-.33,2.18-.83,2.18-4.79v-8.2c0-3.13-1.49-5.45-5.39-5.45a6.35,6.35,0,0,0-4.87,1.93c-.75.94-.86,1.71-.86,3.3v8.42c0,4,.11,4.46,2.18,4.79l1,.16a.94.94,0,0,1-.12,1.38c-1.54-.11-3.21-.17-5.21-.17s-3.79.06-5.4.17a.94.94,0,0,1-.11-1.38l1.2-.16c2.13-.28,2.18-.83,2.18-4.79Z" transform="translate(-35.79 -222.47)"/><path class="cls-4" d="M594,300.29c.63.28.52,2.15-.34,2.26H589.5a24,24,0,0,1,.11,2.81c0,3.79-2.35,8.74-9.63,8.74-1,0-1.83-.1-2.52-.16-.69.39-2.53,1.43-2.53,3,0,1.26,1.32,2.31,4,2.31,1.95,0,4.3-.17,6.82-.17,3.21,0,8,.55,8,6.05,0,6-6.82,10.4-14.28,10.4-7,0-9.52-3.63-9.52-6.38a3,3,0,0,1,.63-2c1-1,2.58-2.43,3.9-3.69.52-.5,1-1,.46-1.32-2.23-.55-4.18-2.42-4.18-4.35,0-.27.23-.49.86-.93a18.26,18.26,0,0,0,3-2.53,2.2,2.2,0,0,0,.57-1.05,7.46,7.46,0,0,1-4.3-6.66c0-4.73,4.24-8.31,9.34-8.31a14.86,14.86,0,0,1,5.51,1.1,7.09,7.09,0,0,0,3.5.88Zm-12,22.23c-1.84,0-4.13.11-4.93.61a5.59,5.59,0,0,0-2.76,4.62c0,3,2.47,5.45,7.69,5.45s8.48-2.75,8.48-5.89c0-3.36-2.4-4.79-6.53-4.79Zm3.55-15.73c0-3.74-1.6-6.88-5.1-6.88-2.75,0-4.82,2.42-4.82,6.16,0,3.91,2.47,6.44,5.22,6.44C583.94,312.51,585.54,310.14,585.54,306.79Z" transform="translate(-35.79 -222.47)"/><path class="cls-4" d="M599.44,305c0-2.14,0-2.42-1.55-3.41l-.52-.33a.73.73,0,0,1,.06-1,39.72,39.72,0,0,0,5.91-2.7.53.53,0,0,1,.57.33c-.11,1.93-.23,4.57-.23,6.83v9.9c0,4,.12,4.51,2.18,4.79l1.2.16a.94.94,0,0,1-.11,1.38c-1.72-.11-3.38-.17-5.39-.17s-3.78.06-5.39.17a.94.94,0,0,1-.12-1.38l1.21-.16c2.12-.28,2.18-.83,2.18-4.79Zm4.76-15.68a3,3,0,0,1-6,.11,2.92,2.92,0,0,1,3.1-3A2.81,2.81,0,0,1,604.2,289.29Z" transform="translate(-35.79 -222.47)"/><path class="cls-4" d="M613.87,305c0-2.14,0-2.42-1.55-3.41l-.52-.33a.73.73,0,0,1,.06-1,31.22,31.22,0,0,0,5.73-2.7.66.66,0,0,1,.63.39c-.11,1.26-.11,2.09-.11,2.58a.59.59,0,0,0,.63.61c2.41-1.43,5.1-2.81,8-2.81,4.76,0,6.71,3.14,6.71,6.83v9.46c0,4,.11,4.51,2.18,4.79l1.26.16a.94.94,0,0,1-.12,1.38c-1.72-.11-3.38-.17-5.39-.17s-3.78.06-5.33.17a.94.94,0,0,1-.11-1.38l1.09-.16c2.12-.33,2.17-.83,2.17-4.79v-8.2c0-3.13-1.49-5.45-5.39-5.45a6.36,6.36,0,0,0-4.87,1.93c-.75.94-.86,1.71-.86,3.3v8.42c0,4,.11,4.46,2.18,4.79l1,.16a.94.94,0,0,1-.11,1.38c-1.55-.11-3.21-.17-5.22-.17s-3.79.06-5.39.17a.94.94,0,0,1-.12-1.38l1.21-.16c2.12-.28,2.18-.83,2.18-4.79Z" transform="translate(-35.79 -222.47)"/><path class="cls-4" d="M644.21,306.68c-1.49,0-1.55.11-1.55,1.48,0,5.56,3.38,10.29,9.52,10.29a6.26,6.26,0,0,0,5.27-2.69.76.76,0,0,1,1,.66c-1.9,3.74-6,5.11-9,5.11a10.45,10.45,0,0,1-8.31-3.63,11.35,11.35,0,0,1-2.41-7.15c0-6.77,4.64-12.44,11.53-12.44,4.93,0,8.14,3.25,8.14,6.55a3.35,3.35,0,0,1-.23,1.43c-.17.33-1,.39-3.38.39Zm3.55-1.65c4.25,0,5.51-.22,6-.55.17-.11.34-.33.34-1.05,0-1.54-1.09-3.47-4.41-3.47s-6.31,3-6.37,4.79c0,.11,0,.28.4.28Z" transform="translate(-35.79 -222.47)"/><path class="cls-4" d="M666.39,306.68c-1.49,0-1.54.11-1.54,1.48,0,5.56,3.38,10.29,9.52,10.29a6.27,6.27,0,0,0,5.27-2.69.75.75,0,0,1,1,.66c-1.89,3.74-6,5.11-9,5.11a10.44,10.44,0,0,1-8.31-3.63,11.35,11.35,0,0,1-2.41-7.15c0-6.77,4.64-12.44,11.52-12.44,4.93,0,8.15,3.25,8.15,6.55a3.35,3.35,0,0,1-.23,1.43c-.18.33-1,.39-3.39.39ZM670,305c4.24,0,5.51-.22,6-.55.18-.11.35-.33.35-1.05,0-1.54-1.09-3.47-4.42-3.47s-6.3,3-6.36,4.79c0,.11,0,.28.4.28Z" transform="translate(-35.79 -222.47)"/><path class="cls-4" d="M686.13,305c0-2.14,0-2.42-1.54-3.41l-.52-.33a.73.73,0,0,1,.06-1,44.33,44.33,0,0,0,5.79-2.7c.29.06.46.17.46.39v3.19c0,.27,0,.44.17.49,2-1.59,4.19-3.3,6.31-3.3a2.34,2.34,0,0,1,2.58,2.2,2.5,2.5,0,0,1-2.47,2.54,2.27,2.27,0,0,1-1.26-.39,4.83,4.83,0,0,0-2.52-.88,2.57,2.57,0,0,0-2.07,1.1c-.57.77-.74,2.37-.74,4.24v7.48c0,4,.11,4.62,2.29,4.79l2.07.16a.94.94,0,0,1-.12,1.38c-2.69-.11-4.36-.17-6.36-.17s-3.79.06-5.28.17a.94.94,0,0,1-.11-1.38l1.09-.16c2.12-.33,2.17-.83,2.17-4.79Z" transform="translate(-35.79 -222.47)"/><path class="cls-4" d="M704.71,305c0-2.14,0-2.42-1.54-3.41l-.52-.33a.73.73,0,0,1,.06-1,39.62,39.62,0,0,0,5.9-2.7c.29,0,.52.11.58.33-.12,1.93-.23,4.57-.23,6.83v9.9c0,4,.11,4.51,2.18,4.79l1.2.16a.94.94,0,0,1-.11,1.38c-1.73-.11-3.39-.17-5.4-.17s-3.78.06-5.39.17a.94.94,0,0,1-.11-1.38l1.2-.16c2.13-.28,2.18-.83,2.18-4.79Zm4.76-15.68a3,3,0,0,1-6,.11,2.92,2.92,0,0,1,3.1-3A2.8,2.8,0,0,1,709.47,289.29Z" transform="translate(-35.79 -222.47)"/><path class="cls-4" d="M719.14,305c0-2.14,0-2.42-1.55-3.41l-.51-.33a.73.73,0,0,1,0-1,31.62,31.62,0,0,0,5.74-2.7.67.67,0,0,1,.63.39,25.12,25.12,0,0,0-.12,2.58.6.6,0,0,0,.64.61c2.4-1.43,5.1-2.81,8-2.81,4.76,0,6.71,3.14,6.71,6.83v9.46c0,4,.12,4.51,2.18,4.79l1.26.16a.94.94,0,0,1-.11,1.38c-1.72-.11-3.38-.17-5.39-.17s-3.79.06-5.33.17a.94.94,0,0,1-.12-1.38l1.09-.16c2.12-.33,2.18-.83,2.18-4.79v-8.2c0-3.13-1.49-5.45-5.39-5.45a6.39,6.39,0,0,0-4.88,1.93,4.53,4.53,0,0,0-.86,3.3v8.42c0,4,.12,4.46,2.18,4.79l1,.16a.94.94,0,0,1-.12,1.38c-1.55-.11-3.21-.17-5.22-.17s-3.78.06-5.39.17a.94.94,0,0,1-.11-1.38l1.2-.16c2.12-.28,2.18-.83,2.18-4.79Z" transform="translate(-35.79 -222.47)"/><path class="cls-4" d="M768.59,300.29c.63.28.52,2.15-.34,2.26h-4.13a24,24,0,0,1,.11,2.81c0,3.79-2.35,8.74-9.63,8.74-1,0-1.84-.1-2.52-.16-.69.39-2.53,1.43-2.53,3,0,1.26,1.32,2.31,4,2.31,1.95,0,4.3-.17,6.82-.17,3.21,0,8,.55,8,6.05,0,6-6.83,10.4-14.28,10.4-7,0-9.52-3.63-9.52-6.38a3,3,0,0,1,.63-2c1-1,2.58-2.43,3.9-3.69.52-.5,1-1,.46-1.32-2.24-.55-4.19-2.42-4.19-4.35,0-.27.23-.49.86-.93a17.49,17.49,0,0,0,3-2.53,2.15,2.15,0,0,0,.58-1.05,7.47,7.47,0,0,1-4.31-6.66c0-4.73,4.25-8.31,9.35-8.31a14.86,14.86,0,0,1,5.51,1.1,7.06,7.06,0,0,0,3.49.88Zm-12,22.23c-1.83,0-4.12.11-4.93.61a5.6,5.6,0,0,0-2.75,4.62c0,3,2.47,5.45,7.68,5.45s8.49-2.75,8.49-5.89c0-3.36-2.41-4.79-6.54-4.79Zm3.56-15.73c0-3.74-1.61-6.88-5.1-6.88-2.76,0-4.82,2.42-4.82,6.16,0,3.91,2.47,6.44,5.22,6.44C758.55,312.51,760.16,310.14,760.16,306.79Z" transform="translate(-35.79 -222.47)"/><path class="cls-4" d="M281.08,251c0,1.49.16,1.49,1.81,1.49h3.74a20.71,20.71,0,0,0,4.67-.33c.61-.22,1.05-.5,1.38-1.94l.49-2.22a1.16,1.16,0,0,1,1.43,0c0,1.33-.22,3.55-.22,5.6s.22,4.1.22,5.37c-.22.33-1,.33-1.43,0l-.55-2.16a2.63,2.63,0,0,0-1.76-2.1,18,18,0,0,0-4.23-.28h-3.74c-1.65,0-1.81.05-1.81,1.49v7.7c0,5.82.11,6.65,3.35,6.93l1.87.16c.33.22.22,1.22-.11,1.39-3.24-.11-5.11-.17-7.31-.17-2.42,0-4.29.06-6.87.17a1.09,1.09,0,0,1-.11-1.39l1.37-.16c3.19-.39,3.3-1.11,3.3-6.93V243.63c0-5.81-.11-6.59-3.3-7l-.88-.12c-.33-.22-.22-1.21.11-1.38,2.31.11,4.18.17,6.38.17H289a72.47,72.47,0,0,0,7.43-.17c0,2.55.05,5.21.16,7.31a1,1,0,0,1-1.32.17c-.44-2.49-1.1-4.54-3.85-5.26a22.78,22.78,0,0,0-5.33-.34h-3.35c-1.65,0-1.65.11-1.65,2.22Z" transform="translate(-35.79 -222.47)"/><path class="cls-4" d="M318.68,259c-.39-1.22-.61-1.38-2.25-1.38h-8.31c-1.37,0-1.7.16-2.08,1.33l-1.93,5.81a21.58,21.58,0,0,0-1.21,4.6c0,.66.28,1,1.6,1.11l1.81.16a.89.89,0,0,1-.11,1.39c-1.43-.11-3.13-.11-5.72-.17-1.81,0-3.79.11-5.27.17a1.1,1.1,0,0,1-.11-1.39l1.81-.16a3.66,3.66,0,0,0,3.3-2.72c1-2.54,2.53-6.14,4.84-12.35l5.6-15c.77-2,1.1-3,.94-3.94a6.14,6.14,0,0,0,2.86-2.1.77.77,0,0,1,.82.5c.72,2.44,1.6,5,2.42,7.42l7.53,22.27c1.6,4.76,2.31,5.59,4.67,5.87l1.49.16a1.11,1.11,0,0,1,0,1.39c-2.26-.11-4.18-.17-6.65-.17-2.64,0-4.73.11-6.33.17a.94.94,0,0,1-.11-1.39l1.6-.16c1.15-.11,1.92-.45,1.92-1a11.37,11.37,0,0,0-.71-2.94Zm-10.89-4.93c-.43,1.28-.38,1.33,1.16,1.33h6.76c1.59,0,1.7-.22,1.21-1.72l-3-9a36.34,36.34,0,0,0-1.26-3.49h-.11a29.92,29.92,0,0,0-1.32,3.27Z" transform="translate(-35.79 -222.47)"/><path class="cls-4" d="M350.56,257.09c1.27,2.61,2.48,5.15,3.8,7.59h.11c1.48-2.6,2.85-5.48,4.23-8.31l5.17-10.58c2.47-5,4.06-8.08,4.17-10.63a40.42,40.42,0,0,0,4.13.17c1.37,0,3.18-.06,4.89-.17a1.16,1.16,0,0,1,.05,1.38l-1.15.12c-3.46.33-3.9,1.38-3.85,5.26.11,5.87.17,16.12.61,24.09.16,2.77.11,4.27,2.69,4.49l1.76.16a1,1,0,0,1-.11,1.39c-2.26-.11-4.51-.17-6.49-.17s-4.4.06-6.65.17a1,1,0,0,1-.11-1.39l1.59-.16c2.7-.28,2.7-1.17,2.7-4.71l-.17-23.1h-.11c-.38.61-2.47,5-3.57,7.2l-4.89,9.7c-2.48,4.87-4.95,10.08-5.94,12.62a.63.63,0,0,1-.55.23.66.66,0,0,1-.49-.23c-.94-2.93-3.58-8.36-4.84-11.07l-5-10.69c-1.15-2.55-2.31-5.43-3.52-8H339c-.22,3.44-.38,6.65-.55,9.86-.16,3.38-.38,8.31-.38,13,0,4.09.33,5,2.47,5.15l2.09.16c.39.34.33,1.22,0,1.39-1.87-.11-4-.17-6.11-.17-1.75,0-3.73.06-5.6.17a1.11,1.11,0,0,1-.11-1.39l1.21-.16c2.31-.34,3.08-.67,3.41-4.54.32-3.66.6-6.71.93-12.19.27-4.6.49-9.3.6-12.35.11-3.49-.33-4.32-3.68-4.76l-.88-.12a1,1,0,0,1,.22-1.38c1.65.11,3,.17,4.34.17s2.75,0,4.57-.17c-.22,2.16,1.15,5.59,2.86,9.14Z" transform="translate(-35.79 -222.47)"/><path class="cls-4" d="M411.47,249.23c0-3.44-.11-9.8-1-11.47-.39-.66-1.38-1-2.75-1.16l-1.38-.11a1,1,0,0,1,.11-1.33c2.09.11,4.13.17,6.27.17,2.31,0,3.79-.06,5.77-.17a1,1,0,0,1,.11,1.33l-1.32.11a3.22,3.22,0,0,0-2.75,1.33c-.77,1.83-.77,8.2-.77,11.3v6.26c0,4.82-.77,9.91-3.84,13.23-2.37,2.61-6.44,4-10.5,4-3.8,0-7.59-.72-10.28-3-2.92-2.44-4.29-6.48-4.29-13.07V243.58c0-5.76-.11-6.7-3.3-7l-1.37-.11c-.33-.22-.22-1.16.11-1.33,2.75.11,4.61.17,6.81.17s4.07-.06,6.76-.17c.33.17.44,1.11.11,1.33l-1.31.11c-3.19.28-3.3,1.22-3.3,7v12c0,8.92,2.75,14.79,11.16,14.79,8,0,11-6.31,11-14.73Z" transform="translate(-35.79 -222.47)"/><path class="cls-4" d="M434.48,254.53a2,2,0,0,1,.65,1.84,2.23,2.23,0,0,1-.57,1.34l-12.87,0a2.34,2.34,0,0,1-.65-1.84,2.23,2.23,0,0,1,.57-1.34Z" transform="translate(-35.79 -222.47)"/><path class="cls-4" d="M447.26,251c0,1.49.16,1.49,1.81,1.49h3.74a20.71,20.71,0,0,0,4.67-.33c.61-.22,1-.5,1.38-1.94l.49-2.22a1.16,1.16,0,0,1,1.43,0c0,1.33-.22,3.55-.22,5.6s.22,4.1.22,5.37c-.22.33-1,.33-1.43,0l-.55-2.16a2.63,2.63,0,0,0-1.76-2.1,18,18,0,0,0-4.23-.28h-3.74c-1.65,0-1.81.05-1.81,1.49v7.7c0,5.82.11,6.65,3.35,6.93l1.87.16c.33.22.22,1.22-.11,1.39-3.24-.11-5.11-.17-7.31-.17-2.42,0-4.29.06-6.87.17a1.09,1.09,0,0,1-.11-1.39l1.37-.16c3.19-.39,3.3-1.11,3.3-6.93V243.63c0-5.81-.11-6.59-3.3-7l-.88-.12c-.33-.22-.22-1.21.11-1.38,2.31.11,4.18.17,6.38.17h10.11a72.12,72.12,0,0,0,7.42-.17c0,2.55.06,5.21.17,7.31a1,1,0,0,1-1.32.17c-.44-2.49-1.1-4.54-3.85-5.26a22.78,22.78,0,0,0-5.33-.34h-3.35c-1.65,0-1.65.11-1.65,2.22Z" transform="translate(-35.79 -222.47)"/><path class="cls-4" d="M477.6,272.77a17.08,17.08,0,0,1-8.58-2c-.65-1.22-1.37-5.15-1.48-7.76.28-.38,1.1-.49,1.32-.16.82,2.82,3.08,8.25,9.46,8.25,4.61,0,6.87-3.05,6.87-6.37,0-2.44-.5-5.15-4.51-7.75l-5.22-3.44c-2.75-1.82-5.94-5-5.94-9.52,0-5.26,4.07-9.53,11.21-9.53a21,21,0,0,1,5.12.72,7.33,7.33,0,0,0,1.92.33,24.2,24.2,0,0,1,1,6.76c-.22.33-1.1.5-1.37.17-.72-2.66-2.2-6.26-7.48-6.26s-6.54,3.6-6.54,6.15c0,3.21,2.64,5.53,4.67,6.81l4.4,2.77c3.46,2.16,6.87,5.37,6.87,10.63C489.31,268.61,484.75,272.77,477.6,272.77Z" transform="translate(-35.79 -222.47)"/><path class="cls-4" d="M522.79,249.23c0-3.44-.11-9.8-1-11.47-.38-.66-1.37-1-2.75-1.16l-1.37-.11a1,1,0,0,1,.11-1.33c2.09.11,4.12.17,6.27.17,2.31,0,3.79-.06,5.77-.17a1,1,0,0,1,.11,1.33l-1.32.11a3.22,3.22,0,0,0-2.75,1.33c-.77,1.83-.77,8.2-.77,11.3v6.26c0,4.82-.77,9.91-3.85,13.23-2.36,2.61-6.43,4-10.5,4-3.79,0-7.58-.72-10.28-3-2.91-2.44-4.28-6.48-4.28-13.07V243.58c0-5.76-.11-6.7-3.3-7l-1.38-.11c-.33-.22-.22-1.16.11-1.33,2.75.11,4.62.17,6.82.17s4.07-.06,6.76-.17c.33.17.44,1.11.11,1.33l-1.32.11c-3.19.28-3.3,1.22-3.3,7v12c0,8.92,2.75,14.79,11.16,14.79,8,0,11-6.31,11-14.73Z" transform="translate(-35.79 -222.47)"/></svg>